<?xml version="1.0" encoding="utf-8"?>
<!-- Generator: Adobe Illustrator 22.1.0, SVG Export Plug-In . SVG Version: 6.00 Build 0)  -->
<svg version="1.1" id="adf6e2ad-667e-4933-ac27-50a949c2abe5"
	 xmlns="http://www.w3.org/2000/svg" xmlns:xlink="http://www.w3.org/1999/xlink" x="0px" y="0px" viewBox="0 0 1130 799.2"
	 style="enable-background:new 0 0 1130 799.2;" xml:space="preserve">
<style type="text/css">
	.st0{fill:#3F3D56;}
	.st1{fill:#F2F2F2;}
	.st2{fill:#3B8AE0;}
</style>
<path class="st0" d="M1097.6,453.5l-14.9-12.5l1.4-1.7l1.4,1.2c-0.2-0.8-0.3-1.6-0.1-2.4c0.2-0.8,0.6-1.5,1.1-2.1
	c0.7-0.9,1.7-1.5,2.8-1.8c1.1-0.3,2.3-0.3,3.3,0.1c1.2,0.4,2.3,1,3.3,1.8c1,0.8,1.9,1.9,2.5,3.1c0.5,1.1,0.7,2.3,0.6,3.4
	c-0.1,1.1-0.6,2.1-1.3,3c-0.5,0.6-1.1,1-1.8,1.3c-0.6,0.3-1.3,0.4-2,0.4l5.2,4.4L1097.6,453.5z M1089.5,443.9c1,1,2.4,1.6,3.8,1.7
	c1,0,2-0.4,2.7-1.2c0.7-0.8,1-1.9,0.7-3c-0.4-1.4-1.3-2.7-2.5-3.6c-1-1-2.4-1.6-3.8-1.7c-1-0.1-2,0.4-2.7,1.2
	c-0.7,0.8-0.9,1.9-0.6,3C1087.5,441.8,1088.3,443,1089.5,443.9z"/>
<path class="st0" d="M1102.1,439.7l-2.3-8.6l-8.2-0.7l1.9-2.3l3.9,0.5c0.7,0.1,1.4,0.2,1.8,0.3c-0.2-0.7-0.4-1.3-0.5-1.8l-1-4
	l1.8-2.2l1.9,8l9.1,0.8l-1.9,2.2l-5.2-0.6l-1.4-0.2l1.9,6.4L1102.1,439.7z"/>
<rect x="1051.4" y="471.9" transform="matrix(0.6435 -0.7654 0.7654 0.6435 10.4755 981.5956)" class="st0" width="15.3" height="15.3"/>
<rect x="1067.2" y="453.1" transform="matrix(0.6435 -0.7654 0.7654 0.6435 30.4621 986.9814)" class="st0" width="15.3" height="15.3"/>
<path class="st0" d="M1097.6,453.5l-14.9-12.5l1.4-1.7l1.4,1.2c-0.2-0.8-0.3-1.6-0.1-2.4c0.2-0.8,0.6-1.5,1.1-2.1
	c0.7-0.9,1.7-1.5,2.8-1.8c1.1-0.3,2.3-0.3,3.3,0.1c1.2,0.4,2.3,1,3.3,1.8c1,0.8,1.9,1.9,2.5,3.1c0.5,1.1,0.7,2.3,0.6,3.4
	c-0.1,1.1-0.6,2.1-1.3,3c-0.5,0.6-1.1,1-1.8,1.3c-0.6,0.3-1.3,0.4-2,0.4l5.2,4.4L1097.6,453.5z M1089.5,443.9c1,1,2.4,1.6,3.8,1.7
	c1,0,2-0.4,2.7-1.2c0.7-0.8,1-1.9,0.7-3c-0.4-1.4-1.3-2.7-2.5-3.6c-1-1-2.4-1.6-3.8-1.7c-1-0.1-2,0.4-2.7,1.2
	c-0.7,0.8-0.9,1.9-0.6,3C1087.5,441.8,1088.3,443,1089.5,443.9z"/>
<path class="st0" d="M1102.1,439.7l-2.3-8.6l-8.2-0.7l1.9-2.3l3.9,0.5c0.7,0.1,1.4,0.2,1.8,0.3c-0.2-0.7-0.4-1.3-0.5-1.8l-1-4
	l1.8-2.2l1.9,8l9.1,0.8l-1.9,2.2l-5.2-0.6l-1.4-0.2l1.9,6.4L1102.1,439.7z"/>
<rect x="1051.4" y="471.9" transform="matrix(0.6435 -0.7654 0.7654 0.6435 10.4755 981.5956)" class="st0" width="15.3" height="15.3"/>
<rect x="1067.2" y="453.1" transform="matrix(0.6435 -0.7654 0.7654 0.6435 30.4621 986.9814)" class="st0" width="15.3" height="15.3"/>
<rect x="1" y="795.2" class="st0" width="1127.1" height="2.5"/>
<circle class="st1" cx="741" cy="91.5" r="17.5"/>
<path class="st1" d="M310.7,144.2c-0.2-13.9-8.9-26.2-21.9-31.1c17.3-7,25.6-26.6,18.6-43.9c-7-17.3-26.6-25.6-43.9-18.6
	c-17.3,7-25.6,26.6-18.6,43.9c3.5,8.8,10.6,15.6,19.5,19c-17.3,7-25.6,26.6-18.6,43.9c3.5,8.8,10.6,15.6,19.5,19
	c-17.3,7-25.6,26.6-18.6,43.9c7,17.3,26.6,25.6,43.9,18.6c17.3-7,25.6-26.6,18.6-43.9c-3.5-8.8-10.6-15.6-19.5-19
	C302.5,170.7,310.9,158.1,310.7,144.2z M245.6,82.2c-0.2-16.9,13.3-30.8,30.2-31.1c16.9-0.2,30.8,13.3,31.1,30.2
	c0.2,14.3-9.5,26.8-23.3,30.2c-4.6-0.9-9.3-0.8-13.8,0.2C255.8,108.7,245.8,96.5,245.6,82.2L245.6,82.2z M308.5,207
	c0.2,16.9-13.3,30.8-30.2,31.1c-16.9,0.2-30.8-13.3-31.1-30.2c-0.2-14.3,9.5-26.8,23.3-30.2c4.6,0.9,9.3,0.8,13.8-0.2
	C298.3,180.6,308.3,192.8,308.5,207z M284.3,174.4c-4.6-0.9-9.3-0.8-13.8,0.2c-16.5-3.6-27-19.9-23.4-36.4
	c2.5-11.4,11.3-20.5,22.6-23.2c4.6,0.9,9.3,0.8,13.8-0.2c16.5,3.6,27,19.9,23.4,36.4C304.5,162.6,295.7,171.6,284.3,174.4
	L284.3,174.4z"/>
<polygon class="st2" points="163.6,269.8 138.2,269.8 138.2,565 138.2,590.4 163.6,590.4 299.1,590.4 299.1,565 163.6,565 "/>
<path class="st2" d="M387.2,269.8h-25.3v320.5h160.8V269.8H387.2z M497.3,565H387.2V295.2h110.1V565z"/>
<path class="st2" d="M967.1,270.4H831.6v320.5h160.8V270.4H967.1z M967.1,565.6H857V295.7h110.1V565.6z"/>
<polygon class="st2" points="719.3,430.1 698.3,430.1 698.3,455.4 719.3,455.4 719.3,565.6 609.1,565.6 609.1,295.7 744.6,295.7 
	744.6,270.4 609.1,270.4 583.8,270.4 583.8,295.7 583.8,565.6 583.8,590.9 609.1,590.9 719.3,590.9 744.6,590.9 744.6,565.6 
	744.6,455.4 765.5,455.4 765.5,430.1 744.6,430.1 "/>
<rect x="232" y="241.3" class="st0" width="8.1" height="2.7"/>
<path class="st0" d="M873.8,244h-16.7v-2.7h16.7V244z M840.5,244h-16.7v-2.7h16.7V244z M807.1,244h-16.7v-2.7h16.7V244z M773.8,244
	h-16.7v-2.7h16.7L773.8,244z M740.4,244h-16.7v-2.7h16.7L740.4,244z M707.1,244h-16.7v-2.7h16.7L707.1,244z M673.7,244h-16.7v-2.7
	h16.7L673.7,244z M640.4,244h-16.7v-2.7h16.7L640.4,244z M607,244h-16.7v-2.7H607L607,244z M573.7,244H557v-2.7h16.7L573.7,244z
	 M540.3,244h-16.7v-2.7h16.7L540.3,244z M507,244h-16.7v-2.7H507L507,244z M473.6,244H457v-2.7h16.7L473.6,244z M440.3,244h-16.7
	v-2.7h16.7L440.3,244z M406.9,244h-16.7v-2.7h16.7L406.9,244z M373.6,244h-16.7v-2.7h16.7L373.6,244z M340.2,244h-16.7v-2.7h16.7
	L340.2,244z M306.9,244h-16.7v-2.7h16.7L306.9,244z M273.5,244h-16.7v-2.7h16.7L273.5,244z"/>
<rect x="890.5" y="241.3" class="st0" width="8.1" height="2.7"/>
<rect x="1018.5" y="311.9" class="st0" width="2.7" height="8.1"/>
<path class="st0" d="M1021.2,523.7h-2.7v-17h2.7V523.7z M1021.2,489.8h-2.7v-17h2.7V489.8z M1021.2,455.8h-2.7v-17h2.7V455.8z
	 M1021.2,421.9h-2.7v-17h2.7V421.9z M1021.2,388h-2.7v-17h2.7V388z M1021.2,354h-2.7v-17h2.7V354z"/>
<rect x="1018.5" y="540.7" class="st0" width="2.7" height="8.1"/>
<rect x="137.3" y="148" class="st1" width="2.7" height="564.8"/>
<rect x="991.3" y="147.6" class="st1" width="2.7" height="564.8"/>
<rect x="1.9" y="588.9" class="st1" width="1126.8" height="2.7"/>
<rect x="1.6" y="268.5" class="st1" width="1126.8" height="2.7"/>
<path class="st0" d="M590.5,220.3v-19.5h2.2v1.8c0.5-0.7,1-1.2,1.7-1.6c0.7-0.4,1.5-0.6,2.3-0.5c1.1,0,2.2,0.3,3.2,0.9
	c0.9,0.6,1.7,1.6,2.1,2.6c0.5,1.2,0.7,2.4,0.7,3.7c0,1.3-0.2,2.7-0.8,3.9c-0.5,1.1-1.3,2-2.3,2.7c-0.9,0.6-2,0.9-3.1,0.9
	c-0.7,0-1.5-0.2-2.1-0.5c-0.6-0.3-1.1-0.7-1.6-1.3v6.9H590.5z M592.6,207.9c-0.1,1.4,0.3,2.8,1.1,4c0.6,0.8,1.6,1.3,2.7,1.3
	c1.1,0,2.1-0.5,2.7-1.3c0.9-1.2,1.3-2.7,1.1-4.2c0.1-1.4-0.3-2.9-1.1-4c-0.6-0.8-1.6-1.3-2.6-1.3c-1.1,0-2.1,0.6-2.7,1.4
	C592.9,205,592.5,206.4,592.6,207.9L592.6,207.9z"/>
<path class="st0" d="M604,214.9l5.1-7.3l-4.8-6.8h3l2.2,3.3c0.4,0.6,0.7,1.2,1,1.6c0.4-0.6,0.7-1.1,1.1-1.6l2.4-3.3h2.9l-4.9,6.6
	l5.2,7.5h-2.9l-2.9-4.4l-0.8-1.2l-3.7,5.6L604,214.9z"/>
<rect x="513.5" y="199.9" class="st0" width="15.3" height="15.3"/>
<rect x="538.1" y="199.9" class="st0" width="15.3" height="15.3"/>
<rect x="562.6" y="199.9" class="st0" width="15.3" height="15.3"/>
</svg>
