<?xml version="1.0" encoding="utf-8"?>
<!-- Generator: Adobe Illustrator 22.1.0, SVG Export Plug-In . SVG Version: 6.00 Build 0)  -->
<svg version="1.1" id="adf6e2ad-667e-4933-ac27-50a949c2abe5"
	 xmlns="http://www.w3.org/2000/svg" xmlns:xlink="http://www.w3.org/1999/xlink" x="0px" y="0px" viewBox="0 0 1130 799.2"
	 style="enable-background:new 0 0 1130 799.2;" xml:space="preserve">
<style type="text/css">
	.st0{opacity:0.5;fill:url(#SVGID_1_);enable-background:new    ;}
	.st1{fill:#4285F4;}
	.st2{opacity:0.6;fill:#4285F4;enable-background:new    ;}
	.st3{opacity:0.6;fill:none;stroke:#535461;stroke-width:1.1832;stroke-miterlimit:10;enable-background:new    ;}
	.st4{fill:url(#SVGID_2_);}
	.st5{fill:#FFFFFF;}
	.st6{fill:#EEEEEE;}
	.st7{fill:#FF5252;}
	.st8{fill:#FFFF00;}
	.st9{fill:#69F0AE;}
	.st10{opacity:0.5;fill:#4285F4;enable-background:new    ;}
	.st11{opacity:0.1;}
	.st12{fill:#F4F4F4;}
	.st13{fill:url(#SVGID_3_);}
	.st14{fill:#72351C;}
	.st15{fill:#333333;}
	.st16{fill:#4D8AF0;}
	.st17{fill:#F55F44;}
	.st18{opacity:0.1;enable-background:new    ;}
	.st19{fill:#FDB797;}
	.st20{fill:#F0E4E4;}
</style>
<g>
	<title>wireframing</title>
	
		<linearGradient id="SVGID_1_" gradientUnits="userSpaceOnUse" x1="657.1589" y1="643.8423" x2="657.1589" y2="372.176" gradientTransform="matrix(1 0 0 1 -124.06 155.08)">
		<stop  offset="0" style="stop-color:#808080;stop-opacity:0.25"/>
		<stop  offset="0.54" style="stop-color:#808080;stop-opacity:0.12"/>
		<stop  offset="1" style="stop-color:#808080;stop-opacity:0.1"/>
	</linearGradient>
	<path class="st0" d="M1060,694.9c-2-8.4-8.7-14.7-13.6-21.8c-12-17.9-13.4-40.8-3.6-60c4.7-9,12.2-18.3,9.5-28.1
		c-1.8-6.6-7.8-11.1-13.6-14.7c-22.3-13.4-48-20-74-19c-31.9,1.3-63.6,14-94.9,7.7c-30.4-6.2-56.2-21.4-88.1-23.2
		c-23.8-1.3-47.3,0.2-71.2-2.4c-58.9-6.4-118.2-7.8-177.4-4.2c-59.1-3.6-118.5-2.2-177.4,4.2c-23.8,2.6-47.3,1.1-71.2,2.4
		c-31.9,1.8-57.7,17.1-88.1,23.2c-31.3,6.3-63-6.4-94.9-7.7c-26-1-51.7,5.6-74,19c-5.9,3.5-11.8,8.1-13.6,14.7
		c-2.7,9.8,4.7,19.1,9.5,28.1c9.8,19.2,8.4,42.2-3.6,60c-4.9,7.1-11.6,13.4-13.6,21.8c-4.1,16.9,12.3,31.8,28.4,38.5
		c43.8,18.3,97.2,9.5,137.3,35c18,11.5,33.7,29.8,55,30.5c14.4,0.5,27.5-7.5,40.1-14.6c18.8-10.5,38.5-19.5,58.8-26.7
		c17.7-6.3,36.5-11.4,55.3-9.3c28.6,3.2,152.2,62.9,207.9,27.6c38.2-24.2,67.9-24.4,96.6-27.6c18.7-2.1,37.5,3,55.3,9.3
		c20.3,7.2,40,16.2,58.8,26.7c12.6,7,25.7,15,40.1,14.6c21.3-0.7,37-19.1,55-30.5c40.1-25.5,93.4-16.7,137.3-35
		C1047.6,726.7,1064.1,711.8,1060,694.9z"/>
	<path class="st1" d="M1054.2,694.6c-2-8.3-8.6-14.6-13.5-21.6c-11.9-17.7-13.2-40.4-3.5-59.4c4.7-8.9,12-18.1,9.4-27.8
		c-1.8-6.5-7.7-11-13.5-14.5c-22-13.3-47.5-19.8-73.2-18.8c-31.5,1.3-62.9,13.9-93.9,7.6c-30.1-6.1-55.6-21.2-87.2-23
		c-23.5-1.3-46.9,0.2-70.4-2.4c-58.3-6.3-116.9-7.7-175.4-4.2c-58.5-3.5-117.2-2.1-175.4,4.2c-23.5,2.6-46.8,1.1-70.4,2.4
		c-31.5,1.8-57,16.9-87.2,23c-30.9,6.2-62.3-6.4-93.9-7.6c-25.7-1-51.2,5.6-73.2,18.8c-5.8,3.5-11.7,8-13.5,14.5
		c-2.7,9.7,4.7,18.9,9.4,27.8c9.7,19,8.3,41.7-3.5,59.4c-4.9,7-11.5,13.3-13.5,21.6c-4.2,16.7,12.1,31.4,28,38
		c43.4,18.1,96.1,9.3,135.7,34.6c17.7,11.3,33.3,29.5,54.4,30.2c14.2,0.5,27.2-7.5,39.6-14.4c18.6-10.4,38.1-19.3,58.2-26.4
		c17.6-6.3,36.1-11.3,54.7-9.2c28.4,3.2,150.6,62.2,205.7,27.3c37.8-23.9,67.2-24.1,95.5-27.3c18.5-2.1,37.1,2.9,54.7,9.2
		c20.1,7.2,39.6,16,58.2,26.4c12.4,7,25.4,14.9,39.6,14.4c21.1-0.7,36.6-18.9,54.4-30.2c39.6-25.2,92.4-16.5,135.7-34.6
		C1042,726,1058.2,711.3,1054.2,694.6z"/>
	<path class="st2" d="M43.2,336.4c3.4-1.2,7-2.3,10.5-1.7c5.9,1,10.1,6.6,11.8,12.4c1.8,5.8,1.7,11.8,2.8,17.7
		c1.1,5.9,3.8,12,9.1,14.9c5.3,2.8,11.6,1.7,17.4,1c7.7-0.9,15.5-1,23.2-0.2c6.5,0.6,14.1,2.8,16,9.1c1.6,5.1-1.5,10.3-3.5,15.2
		c-3.9,9.2-4.2,20,0.2,29s13.4,15.6,17.1,25c1.1,2.4,1.4,5,0.9,7.5c-0.6,1.8-1.5,3.4-2.7,4.9c-2.9,3.8-6.4,7.1-9.1,11.1
		c-5.6,8.3-7.1,18.6-7.7,28.5c-0.6,9.8-0.6,19.6,0.2,29.4c-7.3-2.4-15.3-0.3-22.8-1.8c-15.8-3.4-25.8-22.3-42-23.4
		c-7.7-0.5-15.9,3.1-22.8-0.4c-3.3-1.9-5.8-4.8-7.3-8.3c-2.9-6.2-3.6-13.2-1.9-19.8c1.2-4.6,3.5-9,3.1-13.7c-0.4-4-2.8-7.6-5.6-10.5
		c-7.9-8.4-19.3-13.5-25-23.5c-5.3-9.7-4-21.7,3.2-30.2c2-2,3.9-4.1,5.7-6.2c2.7-3.8,3.5-8.7,3.9-13.4c0.8-11.3-1.2-23.2,2.5-34.1
		C23.8,344.9,33.9,339.7,43.2,336.4z"/>
	<path class="st3" d="M43.3,336.7c0,0,32.3,179.5,74.3,200.9"/>
	<path class="st3" d="M133.2,386.4c0,0-34.6,4.7-69.2,40.3"/>
	<path class="st3" d="M70.1,447.5c0,0-26.6-26-68.2-21.6"/>
	<path class="st3" d="M148.5,458.8c0,0-48.6,4.1-66.6,22.8"/>
	<path class="st3" d="M89.2,499c0,0-27.2-4.7-52.3,11.3"/>
	<path class="st2" d="M1043.6,195.4c-5.4-1.9-11.2-3.7-16.9-2.7c-9.5,1.7-16.1,10.6-18.9,19.9s-2.7,19-4.5,28.5s-6.1,19.3-14.6,23.8
		s-18.5,2.7-28,1.7c-12.4-1.4-24.8-1.6-37.2-0.4c-10.4,1-22.6,4.5-25.7,14.5c-2.5,8.2,2.5,16.5,5.8,24.3c6.2,14.7,6.7,32.1-0.4,46.4
		c-7.2,14.6-21.4,25-27.4,40.1c-1.5,3.8-2.5,8.1-1.4,12.1c0.9,2.9,2.3,5.5,4.3,7.8c4.7,6.1,10.3,11.4,14.6,17.7
		c8.9,13.3,11.4,29.8,12.4,45.7c1,15.7,0.9,31.4-0.3,47.1c11.6-3.8,24.5-0.4,36.5-2.9c25.5-5.3,41.5-35.5,67.5-37.3
		c12.3-0.9,25.5,4.9,36.5-0.7c5.3-2.7,9.1-7.9,11.7-13.3c4.6-9.9,5.6-21.1,2.8-31.6c-1.9-7.3-5.7-14.5-4.9-22
		c0.6-6.4,4.5-12.1,8.9-16.8c12.6-13.4,31-21.6,40.1-37.7c8.5-15.1,6.4-35.4-5.1-48.3c-3-3.4-6.6-6.3-9.2-10
		c-4.4-6.1-5.8-13.9-6.3-21.4c-1.2-18,1.8-37.1-4-54.7C1074.6,209.1,1058.5,200.7,1043.6,195.4z"/>
	<path class="st3" d="M1043.2,195.9c0,0-51.8,287.6-119.1,321.9"/>
	<path class="st3" d="M899.1,275.5c0,0,55.5,7.6,110.9,64.6"/>
	<path class="st3" d="M1000.3,373.5c0,0,42.7-41.8,109.4-34.7"/>
	<path class="st3" d="M874.8,391.6c0,0,77.9,6.6,106.7,36.5"/>
	<path class="st3" d="M969.8,456c0,0,43.6-7.6,83.9,18.1"/>
	
		<linearGradient id="SVGID_2_" gradientUnits="userSpaceOnUse" x1="520.55" y1="362.9" x2="520.55" y2="-223" gradientTransform="matrix(1 0 0 1 0 300)">
		<stop  offset="0" style="stop-color:#808080;stop-opacity:0.25"/>
		<stop  offset="0.54" style="stop-color:#808080;stop-opacity:0.12"/>
		<stop  offset="1" style="stop-color:#808080;stop-opacity:0.1"/>
	</linearGradient>
	<polygon class="st4" points="90.5,77 90.5,106.6 90.5,662.9 950.6,662.9 950.6,106.6 950.6,77 	"/>
	<rect x="103.2" y="103.6" class="st5" width="838.2" height="548.7"/>
	<rect x="103.2" y="77.5" class="st6" width="838.2" height="40.4"/>
	<circle class="st7" cx="135.1" cy="97.1" r="9.8"/>
	<circle class="st8" cx="162" cy="97.1" r="9.8"/>
	<circle class="st9" cx="189" cy="97.1" r="9.8"/>
	<rect x="135.3" y="182.5" class="st10" width="312.4" height="13"/>
	<rect x="135.3" y="208.5" class="st10" width="312.4" height="13"/>
	<rect x="135.3" y="234.6" class="st10" width="312.4" height="13"/>
	<rect x="243" y="260.6" class="st10" width="204.7" height="13"/>
	<rect x="135.3" y="286.6" class="st10" width="164.5" height="13"/>
	<rect x="224.1" y="312.7" class="st10" width="126.6" height="13"/>
	<rect x="489.1" y="273.6" class="st10" width="368" height="211.8"/>
	<rect x="532.9" y="293.7" class="st6" width="368" height="211.8"/>
	<path class="st1" d="M738.8,505.5H532.9v-38.8C583.2,443.2,660.6,430,738.8,505.5z"/>
	<g class="st11">
		<path d="M898.5,500v5.5H641.8v-1.2C641.8,504.3,768.1,381.3,898.5,500z"/>
	</g>
	<path class="st1" d="M900.9,500v5.5H644.1v-1.2C644.1,504.3,770.5,381.3,900.9,500z"/>
	<circle class="st1" cx="575.5" cy="331.6" r="18.9"/>
	<path class="st12" d="M736.7,317.3c-2.2,0-4.6,0-6.2,0.1c-0.7,0-1.5,0.2-2.2,0.4l-11.1,4c9,0.2,18.4,0.2,27.6,0.1l51.7-0.4
		c5.3,0,10.8-0.1,15.2-0.4c2.9-0.2,5.1-0.5,7.8-0.8c9.8-0.9,24-0.7,36.8-0.7c12.7,0,28.1-0.3,32.6-1.6h-27.4c-2.9,0-6,0-8.6-0.1
		c-3-0.2-4.9-0.5-7.6-0.7c-4.4-0.4-10.5-0.4-16.2-0.4C797.9,316.7,767.1,317.4,736.7,317.3z"/>
	<path class="st12" d="M767.3,340.2c-0.5,0-1,0-1.3,0c-0.2,0-0.3,0-0.5,0.1l-2.4,0.9c2,0,4,0,6,0l11.2-0.1c1.2,0,2.4,0,3.3-0.1
		c0.6,0,1.1-0.1,1.7-0.2c2.1-0.2,5.2-0.2,8-0.1c2.4,0.1,4.7,0,7.1-0.3h-5.9c-0.6,0-1.3,0-1.9,0c-0.6,0-1.1-0.1-1.6-0.2
		c-1-0.1-2.3-0.1-3.5-0.1C780.6,340.1,773.9,340.2,767.3,340.2z"/>
	<path class="st12" d="M688,373.3c-0.5,0-1,0-1.3,0c-0.2,0-0.3,0-0.5,0.1l-2.4,0.9c2,0,4,0,6,0l11.2-0.1c1.2,0,2.4,0,3.3-0.1
		c0.6,0,1.1-0.1,1.7-0.2c2.1-0.2,5.2-0.2,8-0.1c2.4,0.1,4.7,0,7.1-0.3h-5.9c-0.6,0-1.3,0-1.9,0c-0.6,0-1.1-0.1-1.6-0.2
		c-1-0.1-2.3-0.1-3.5-0.1C701.3,373.2,694.7,373.4,688,373.3z"/>
	<path class="st1" d="M643.5,495h-8.9c0,0-2.8-97.3,8.9-127.3h2.2C645.8,367.7,638,477.8,643.5,495z"/>
	<path class="st1" d="M637.4,362.7c0,0-7.2,20-3.9,28.9c0,0,5-18.4,10.8-21.1c5.8-2.8,12,21.1,12,21.1s3.3-15-2.8-27.2
		c0,0,12.2,6.7,18.4,19.5c0,0,1.1-8.3-13.3-25.6c0,0,12.8,3.3,21.1,11.1c0,0,2.8-6.1-14.5-16.1c0,0,2.2-7.2,15.6-3.9
		c0,0,0-9.5-21.1-7.8c0,0,0-6.1,13.9-5c0,0,0-7.8-16.1-5c0,0,3.3-5,5.6-6.1c-2.8-0.3-5.6,0.5-7.8,2.2c0,0,0.6-10-7.8-13.9l-1.1,13.9
		c0,0-9.3-11-7.2-8.9c0.6,0.6,2.2,7.2,1.7,10.6c0,0-9.5-7.8-21.1,0.6c0,0,14.5,1.1,16.7,6.1c0,0-12.2-2.2-15-0.6
		c0,0,9.5,3.3,8.9,5.6c0,0-16.7,0-18.9,6.1c0,0,17.2,2.2,18.4,3.9c0,0-20,14.5-21.1,18.4c0,0,20.6-12.2,23.9-12.2
		s-15,17.7-13.9,22.2C618.5,379.4,633.6,361.6,637.4,362.7z"/>
	<path class="st1" d="M753.3,491.4h6.8c0,0,2.1-74.3-6.8-97.3h-1.7C751.6,394.1,757.5,478.2,753.3,491.4z"/>
	<path class="st1" d="M758,390.3c0,0,5.5,15.3,3,22.1c0,0-3.8-14-8.3-16.1s-9.1,16.1-9.1,16.1s-2.5-11.5,2.1-20.8
		c-6,3.5-10.8,8.7-14,14.9c0,0-0.9-6.4,10.2-19.5c0,0-9.8,2.5-16.1,8.5c0,0-2.1-4.7,11.1-12.3c0,0-1.7-5.5-11.9-3
		c0,0,0-7.2,16.1-5.9c0,0,0-4.7-10.6-3.8c0,0,0-5.9,12.3-3.8c0,0-2.5-3.8-4.2-4.7c2.1-0.2,4.2,0.4,5.9,1.7c0,0-0.4-7.6,5.9-10.6
		l0.9,10.6c0,0,7.1-8.4,5.5-6.8c-1,2.6-1.5,5.3-1.3,8.1c0,0,7.2-5.9,16.1,0.4c0,0-11.1,0.9-12.7,4.7c0,0,9.3-1.7,11.5-0.4
		c0,0-7.2,2.5-6.8,4.2c0,0,12.7,0,14.4,4.7c0,0-13.2,1.7-14,3c0,0,15.3,11.1,16.1,14c0,0-15.7-9.3-18.3-9.3s11.5,13.6,10.6,17
		C772.4,403,760.9,389.5,758,390.3z"/>
	<path class="st1" d="M834.6,476.9h4.2c0,0,1.3-46-4.2-60.2h-1.1C833.5,416.6,837.2,468.7,834.6,476.9z"/>
	<path class="st1" d="M837.5,414.2c0,0,3.4,9.5,1.8,13.7c0,0-2.4-8.7-5.1-10c-2.8-1.3-5.7,10-5.7,10s-1.6-7.1,1.3-12.9
		c-3.7,2.2-6.7,5.4-8.7,9.2c0,0-0.5-4,6.3-12.1c-3.7,1-7.1,2.8-10,5.3c0,0-1.3-2.9,6.8-7.6c0,0-1.1-3.4-7.4-1.8c0,0,0-4.5,10-3.7
		c0,0,0-2.9-6.6-2.4c0,0,0-3.7,7.6-2.4c-0.7-1.1-1.6-2.1-2.6-2.9c1.3-0.1,2.6,0.3,3.7,1.1c0,0-0.3-4.7,3.7-6.6l0.5,6.6
		c0,0,4.4-5.2,3.4-4.2c-0.6,1.6-0.9,3.3-0.8,5c3-2.2,7.1-2.1,10,0.3c0,0-6.8,0.5-7.9,2.9c0,0,5.8-1.1,7.1-0.3c0,0-4.5,1.6-4.2,2.6
		c0,0,7.9,0,8.9,2.9c0,0-8.2,1.1-8.7,1.8c0,0,9.5,6.8,10,8.7c0,0-9.7-5.8-11.3-5.8s7.1,8.4,6.6,10.5
		C846.4,422.1,839.3,413.7,837.5,414.2z"/>
	
		<linearGradient id="SVGID_3_" gradientUnits="userSpaceOnUse" x1="792.9952" y1="315.477" x2="792.9952" y2="249.9992" gradientTransform="matrix(1 0 0 1 -124.06 155.08)">
		<stop  offset="0" style="stop-color:#808080;stop-opacity:0.25"/>
		<stop  offset="0.54" style="stop-color:#808080;stop-opacity:0.12"/>
		<stop  offset="1" style="stop-color:#808080;stop-opacity:0.1"/>
	</linearGradient>
	<path class="st13" d="M680.8,424.8L680.8,424.8l-0.9-4.7c0-0.7-0.3-1.4-0.8-1.9l-4.1-2l0,0c-0.3-0.4-0.5-0.8-0.7-1.2l0.1-0.1
		c0.2-0.3,0.4-0.6,0.5-1c0-0.1,0-0.2,0-0.3h0.1c0.8,0.1,1.5-0.4,1.7-1.2v-0.1c-0.1,0.7-0.7,1.1-1.4,1.2c1.2-0.8,1.9-2.1,1.9-3.5
		c0,0,0-0.1,0-0.2c0.4-0.2,0.6-0.6,0.7-1v-0.1c-0.1,0.4-0.4,0.7-0.7,0.9c0-0.4-0.1-0.8-0.3-1.2h0.1c0.8,0,1.5-0.7,1.5-1.5v-0.1
		c-0.1,0.8-0.7,1.4-1.5,1.4h-0.2v-0.1c0.9-0.3,1.6-1.1,1.8-2V406c0,0.3-0.1,0.6-0.3,0.8c0-0.8-0.6-1.6-1.4-1.6
		c-0.7,0-1.4,0.4-1.6,1.2l-0.3-0.2c0.2-0.6,0.7-1.1,1.4-1.1h-0.1c-0.7,0-1.2,0.4-1.5,1c-1.9-0.9-4.1-0.2-5.3,1.5
		c-0.3,0.2-0.7,0.6-0.7,0.9c-0.1,0.1-0.3,0.3-0.4,0.4c-0.5,1-0.6,2.1-0.5,3.2s-0.3,2.2-1.1,2.9c0.4,0.1,0.8,0.1,1.1,0
		c0.4-0.1,0.7-0.3,1-0.6c0.3-0.2,0.5-0.4,0.7-0.7v-0.1c0.2,0.1,0.4,0.2,0.6,0.3c0.1,0.7,0.1,1.5-0.2,1.8l0,0l0,0l0.1-0.1
		c-0.8,0.6-1.7,0.8-2.7,0.8c-1.2,0.1-2.2,0.7-2.8,1.8l-1.3,5.4l0,0v0.1l0,0v0.1l0,0c0,0.1,0.2,0.3,0.3,0.3l0.4,0.1
		c0.1,0.9,0,1.8-0.3,2.7c-0.3,1.3-0.4,2.7-0.5,4c0.1,0.7,0.3,4.2,0.3,5.9c-0.1,0.6-0.3,1.1-0.3,1.7l-1.9,11.4c0,0-1.4,9.1-1.3,11.9
		l-0.2,1.6c0,0-3.9,4.9-2.7,5.5c1.1,0.7,2.9,1,4.6-1.6c0.2-0.6,0.6-1.2,1.1-1.6c0.4-0.3,0.6-0.8,0.5-1.3l-0.1-1.2l0.2,0.1l0,0h0.1
		c0,0,1.9-6.3,1.7-10.6c0,0,3.5-12.6,6.2-14.5v-0.1l0.2-0.1l0.6,12.2l-0.6,13.4l-0.1,0.8c0,0-3.9,4.9-2.7,5.5c1.1,0.7,2.9,1,4.6-1.6
		c0.2-0.6,0.6-1.2,1.1-1.6c0.4-0.3,0.6-0.8,0.5-1.3l-0.2-1.8c0.7-2.3,2.4-8.8,1.7-12.5l1.2-8c1.2-1.3,1-4.7,1-4.7
		c0.9-2,1.2-9.6,1.2-9.6l0.2-3.8c0.2,0,0.4,0,0.5,0h0.1h0.1v0l0.1-0.1h0.1L680.8,424.8L680.8,424.8L680.8,424.8z M677.5,432.5
		c-0.1-0.3-0.2-0.5-0.4-0.8H677v-0.1v-0.1v-0.1c0.1-0.1,0.1-0.3,0.1-0.4c0.2-0.2,0.2-0.5,0.2-0.8C677.5,431,677.6,431.7,677.5,432.5
		z M677.1,429.2l-0.2-2.5l0.1-0.2l0.3,3.2L677.1,429.2z M665.9,429.6c-0.2,0.2-0.2,0.4-0.2,0.7c0,0,0,0,0,0.1c0,0.3,0,0.5,0.1,0.8
		l-0.4,1.6v-3c0.2-0.3,0.5-0.7,0.6-1C666.1,429,666,429.3,665.9,429.6L665.9,429.6z"/>
	<path class="st14" d="M668.3,410c-0.4,1-0.6,2-0.5,3s-0.3,2.1-1.1,2.8c0.3,0.1,0.7,0.1,1.1,0c0.3-0.1,0.7-0.3,0.9-0.6
		c0.3-0.2,0.5-0.4,0.7-0.7c0.2-0.4,0.2-0.9,0.2-1.3c0-0.8,0.1-1.5,0.2-2.3c0.1-0.5,0.5-1.8,0-2S668.5,409.7,668.3,410z"/>
	<path class="st15" d="M660.5,460.3l-0.4,2.4c0,0-3.7,4.7-2.6,5.3c1.1,0.6,2.8,0.9,4.4-1.5c0.2-0.6,0.6-1.1,1-1.5l0,0
		c0.4-0.3,0.6-0.8,0.5-1.3l-0.4-3.6L660.5,460.3z"/>
	<path class="st15" d="M671.7,461.3l-0.4,2.4c0,0-3.7,4.7-2.6,5.3c1.1,0.6,2.8,0.9,4.4-1.5c0.2-0.6,0.6-1.1,1-1.5l0,0
		c0.4-0.3,0.6-0.8,0.5-1.3l-0.4-3.6L671.7,461.3z"/>
	<path class="st16" d="M665.9,433c0,0-1.8,1.3-2.4,5.7l-1.8,11c0,0-1.5,10-1.3,11.9l3.1,1.1c0,0,1.8-6,1.6-10.2
		c0,0,3.7-13.3,6.3-14.2L672,450l-0.6,13.2l2.7,0.5c0,0,2.7-8.4,1.8-12.8l1.4-9.5c0,0,1.6-5.1-0.6-9.5L665.9,433z"/>
	<g class="st11">
		<path d="M671.2,438.4v-0.2c-2.6,0.9-6.3,14.2-6.3,14.2c-0.1,3.4-0.6,6.8-1.6,10.1l0.3,0.1c0,0,1.8-6,1.6-10.2
			C665.2,452.4,668.6,440.3,671.2,438.4z"/>
		<path d="M676.8,431.9h-0.4c1.3,3,1.5,6.3,0.6,9.4l-1.4,9.5c0.8,4.2-1.6,12-1.8,12.8l0.3,0.1c0,0,2.7-8.4,1.8-12.8l1.4-9.5
			C677.4,441.3,679,436.3,676.8,431.9z"/>
	</g>
	<path class="st17" d="M663.5,424.4c0,0.2,0.1,0.4,0.3,0.4c0.9,0.2,1.7,0.6,2.4,1.2c1.3,1-1.4-2-1.4-2l-0.9,0.2L663.5,424.4
		L663.5,424.4z"/>
	<path class="st18" d="M663.5,424.4c0,0.2,0.1,0.4,0.3,0.4c0.9,0.2,1.7,0.6,2.4,1.2c1.3,1-1.4-2-1.4-2l-0.9,0.2L663.5,424.4
		L663.5,424.4z"/>
	<path class="st17" d="M676.3,427.1c1.1-0.8,2.4-1.3,3.7-1.5c0.2,0,0.3-0.2,0.3-0.3l0,0C680.3,425.3,677.2,424,676.3,427.1z"/>
	<path class="st18" d="M680.3,425.2c0,0-3.1-1.2-4,1.8c0,0,2.3-1.8,3.9-1.5"/>
	<circle class="st14" cx="672.7" cy="411" r="4"/>
	<path class="st19" d="M669.9,413.8c0,0,0.6,2.4,0,2.9s-1.7,1.4-0.9,2.1c0.9,0.7,4,1.9,5,1.3s2.2-0.4,1.9-1.6s-2.5-0.9-2.6-6.8
		L669.9,413.8z"/>
	<path class="st18" d="M664.2,423.7c0.1,1.3,0,2.6-0.2,3.8c-0.3,1.3-0.4,2.6-0.4,3.9c0.1,0.9,0.4,6.5,0.4,6.5s-0.4,4.9,2,4.5
		s-0.4-5.6-0.4-5.6l0.1-6.7c0.7-0.9,1.1-1.9,1.2-3C666.9,425.3,664.2,423.7,664.2,423.7z"/>
	<path class="st19" d="M664.2,423.7c0.1,1.3,0,2.6-0.2,3.8c-0.3,1.3-0.4,2.6-0.4,3.9c0.1,0.9,0.4,6.5,0.4,6.5s-0.4,4.9,2,4.5
		s-0.4-5.6-0.4-5.6l0.1-6.7c0.7-0.9,1.1-1.9,1.2-3C666.9,425.3,664.2,423.7,664.2,423.7z"/>
	<path class="st18" d="M679.5,424l-0.3,5.3c0,0-0.2,7.4-1.1,9.3c0,0,0.2,5.2-2.2,5.1s0.4-5.7,0.4-5.7s1.3-5.8,0.6-7.6l-0.6-6.3
		L679.5,424L679.5,424z"/>
	<path class="st19" d="M679.6,424l-0.3,5.3c0,0-0.2,7.4-1.1,9.3c0,0,0.2,5.2-2.2,5.1s0.4-5.7,0.4-5.7s1.3-5.8,0.6-7.6l-0.6-6.3
		L679.6,424L679.6,424z"/>
	<path class="st18" d="M671.8,418.9c0,0,2,0.9,3-1.8l4,1.9c0.5,0.5,0.8,1.1,0.8,1.8l0.9,4.6c0,0-2.9-1-3.8,1.7l0.2,2.6l0,0
		c0.2,0.6,0.1,1.3-0.1,1.9c0,0.1,0,0.2,0,0.3c0.2,0.7-0.2,1.4-0.8,1.6c-0.1,0-0.2,0.1-0.4,0.1c-1.1,0-2.1,0.1-3.2,0.2
		c-0.9,0.2-3.4-0.5-4.3,0s-2.7-0.4-2.7-0.4l0.5-2.1c0,0-0.3-1,0.1-1.4c0.4-0.4,0.2-3.5-0.2-4.4c0,0-1.5-1.4-2.4-1.2l1.2-5.3
		c0.5-1,1.5-1.7,2.7-1.7c0.9,0.1,1.8-0.2,2.6-0.7C669.8,416.7,668.9,418.6,671.8,418.9z"/>
	<path class="st18" d="M672,418.8c0.5,0.1,2,0.3,2.8-1.8l4,1.9c0.5,0.5,0.8,1.1,0.8,1.8l0.9,4.6c0,0-2.9-1-3.8,1.7l0.2,2.6l0.2,0.5
		c0.1,0.4,0.1,0.9-0.2,1.3c-0.1,0.1-0.1,0.3-0.1,0.5c0.2,0.7-0.2,1.4-0.8,1.6c-0.1,0-0.2,0.1-0.4,0.1c-1.1,0-2.1,0.1-3.2,0.2
		c-0.9,0.2-3.4-0.5-4.3,0s-2.7-0.4-2.7-0.4l0.5-2.1c0,0-0.3-1,0.1-1.4c0.4-0.4,0.2-3.5-0.2-4.4c0,0-1.5-1.4-2.4-1.2l1.2-5.3
		c0.5-1,1.5-1.7,2.7-1.7c0.9,0.1,1.8-0.2,2.6-0.7c0,0-1,1.8,1.6,2.1L672,418.8z"/>
	<path class="st17" d="M672,418.9c0.5,0.1,2,0.3,2.8-1.8l4,1.9c0.5,0.5,0.8,1.1,0.8,1.8l0.9,4.6c0,0-2.9-1-3.8,1.7l0.2,2.6l0,0
		c0.2,0.6,0.1,1.3-0.1,1.9c0,0.1,0,0.2,0,0.3c0.2,0.7-0.2,1.4-0.8,1.6c-0.1,0-0.2,0.1-0.4,0.1c-1.1,0-2.1,0.1-3.2,0.2
		c-0.9,0.2-3.4-0.5-4.3,0s-2.7-0.4-2.7-0.4l0.5-2.1c0,0-0.3-1,0.1-1.4c0.4-0.4,0.2-3.5-0.2-4.4c0,0-1.5-1.4-2.4-1.2l1.2-5.3
		c0.5-1,1.5-1.7,2.7-1.7c0.9,0.1,1.8-0.2,2.6-0.7c0,0-1,1.8,1.6,2.1L672,418.9z"/>
	<path class="st18" d="M673.5,411.9L670,414c0.1,0.4,0.2,0.8,0.2,1.2c0.4,0.2,0.8,0.2,1.2,0.2c0.8-0.1,1.6-0.4,2.2-1
		C673.5,413.6,673.5,412.7,673.5,411.9z"/>
	<circle class="st19" cx="671.4" cy="411.8" r="3.3"/>
	<circle class="st14" cx="676.3" cy="407.8" r="1.5"/>
	<path class="st14" d="M676.6,409.4c-0.8,0-1.4-0.6-1.5-1.4v0.1c0,0.8,0.7,1.5,1.5,1.5s1.5-0.7,1.5-1.5l0,0V408
		C678,408.8,677.4,409.4,676.6,409.4z"/>
	<path class="st14" d="M675.7,410.8c-0.8-0.1-1.3-0.8-1.2-1.6v0.1c-0.1,0.8,0.4,1.6,1.2,1.7s1.6-0.4,1.7-1.2l0,0v-0.1
		C677.3,410.4,676.5,410.9,675.7,410.8z"/>
	<path class="st14" d="M674.6,414.3c-0.8-0.1-1.3-0.8-1.2-1.6v0.1c-0.1,0.8,0.4,1.6,1.2,1.7s1.6-0.4,1.7-1.2v-0.1
		C676.1,414,675.4,414.5,674.6,414.3z"/>
	<path class="st14" d="M676.6,408.6c-0.8,0-1.4-0.6-1.5-1.4v0.1c0,0.8,0.7,1.5,1.5,1.5s1.5-0.7,1.5-1.5l0,0v-0.1
		C678,408,677.4,408.6,676.6,408.6z"/>
	<path class="st14" d="M674.5,407.8c0-0.8,0.6-1.4,1.4-1.5h-0.1c-0.8,0-1.5,0.7-1.5,1.5s0.7,1.5,1.5,1.5l0,0h0.1
		C675.1,409.2,674.5,408.6,674.5,407.8z"/>
	<path class="st18" d="M676,421.6c0.2,0.7,0.2,1.5,0,2.2c0,0-0.2,1.9,0.1,2.2"/>
	<path class="st18" d="M666.1,422.1c0.2,0.7,0.2,1.5,0,2.2c0,0-0.2,1.9,0.1,2.2"/>
	<path class="st18" d="M666,429.9c0.3,0.1,0.7,0.1,1,0c0.4-0.1,0.8-0.1,1.2,0"/>
	<path class="st18" d="M666.5,427.1c1.2,0.1,2.3-0.1,3.4-0.5c0,0,4.2,1,5.3,0.3"/>
	<path class="st19" d="M664.3,444.6h1c0.4,0,0.8,0.4,0.8,0.8l0,0c0,0.4-0.4,0.8-0.8,0.8h-1c-0.4,0-0.8-0.4-0.8-0.8l0,0
		C663.5,445,663.8,444.6,664.3,444.6z"/>
	<path class="st20" d="M663.5,445.1l1.4-0.1l1.2,0.2h-0.4L663.5,445.1z"/>
	<path class="st20" d="M672.8,438.4h1.4l1.2,0.1H675L672.8,438.4z"/>
	<path class="st20" d="M672.8,438.7h1.4l1.2,0.1H675L672.8,438.7z"/>
	<path class="st20" d="M672.8,439h1.4l1.2,0.1H675L672.8,439z"/>
	<path class="st20" d="M672.8,439.3h1.4l1.2,0.1H675L672.8,439.3z"/>
	<path class="st20" d="M663.5,446.2h1.4l1.2,0.1h-0.4L663.5,446.2z"/>
	<path class="st20" d="M663.5,446h1.4l1.2,0.1h-0.4L663.5,446z"/>
	<path class="st20" d="M663.5,445.9h1.4l1.2,0.1h-0.4L663.5,445.9z"/>
	<path class="st20" d="M663.5,445.7h1.4l1.2,0.1h-0.4L663.5,445.7z"/>
	<path class="st20" d="M663.5,444.9l1.4-0.1l1.2,0.2h-0.4L663.5,444.9z"/>
	<path class="st20" d="M663.5,444.6l1.4-0.1l1.2,0.2h-0.4L663.5,444.6z"/>
	<path class="st18" d="M671.9,409.7c-0.1,1.3,0,2.5,0.5,3.7c0.4,1.2,0.4,2.4-0.2,3.5c0.4,0.1,0.8,0,1-0.3c0.3-0.3,0.5-0.6,0.8-0.9
		c0.2-0.3,0.4-0.6,0.5-0.9c0-0.5,0-1.1-0.2-1.6c-0.2-0.9-0.4-1.8-0.5-2.8c-0.1-0.6,0-2.2-0.6-2.4C672.5,408,672.1,409.2,671.9,409.7
		z"/>
	<path class="st14" d="M672,409.7c-0.1,1.3,0,2.5,0.5,3.7c0.4,1.2,0.4,2.4-0.2,3.5c0.4,0.1,0.8,0,1-0.3c0.3-0.3,0.5-0.6,0.8-0.9
		c0.2-0.3,0.4-0.6,0.5-0.9c0-0.5,0-1.1-0.2-1.6c-0.2-0.9-0.4-1.8-0.5-2.8c-0.1-0.6,0-2.2-0.6-2.4C672.6,408,672.1,409.2,672,409.7z"
		/>
	<path class="st18" d="M670.6,410.5c0.3,0.3,0.3,0.7,0.6,1.1c0.4,0.5,1,0.7,1.7,0.7c0.2,0,0.3,0,0.5,0.1c0.3,0.2,0.3,0.5,0.4,0.8
		c0.4,0.4,1,0.4,1.3,0l0,0c0.3-0.4,0.5-0.9,0.5-1.5c0.1-0.6,0.1-1.2,0-1.8c0-0.7-0.3-1.3-0.7-1.8c-0.4-0.3-0.8-0.5-1.3-0.6
		c-0.6-0.2-1.3-0.3-2-0.2c-0.3,0.1-0.6,0.3-0.9,0.5c-0.4,0.3-0.8,0.5-1.2,0.8s-1.3,0.9-0.5,1.3C669.5,410.2,670.2,410.1,670.6,410.5
		z"/>
	<path class="st14" d="M670.7,410.5c0.3,0.3,0.3,0.7,0.6,1.1c0.4,0.5,1,0.7,1.7,0.7c0.2,0,0.3,0,0.5,0.1c0.3,0.2,0.3,0.5,0.4,0.8
		c0.4,0.4,1,0.4,1.3,0l0,0c0.3-0.4,0.5-0.9,0.5-1.5c0.1-0.6,0.1-1.2,0-1.8c0-0.7-0.3-1.3-0.7-1.8c-0.4-0.3-0.8-0.5-1.3-0.6
		c-0.6-0.2-1.3-0.3-2-0.2c-0.3,0.1-0.6,0.3-0.9,0.5c-0.4,0.3-0.8,0.5-1.2,0.8s-1.3,0.9-0.5,1.3C669.6,410.1,670.3,410,670.7,410.5z"
		/>
	<path class="st20" d="M672.8,438.4h1.4l1.2,0.1H675L672.8,438.4z"/>
	<path class="st20" d="M672.8,438.7h1.4l1.2,0.1H675L672.8,438.7z"/>
	<path class="st20" d="M672.8,439h1.4l1.2,0.1H675L672.8,439z"/>
	<path class="st20" d="M672.8,439.3h1.4l1.2,0.1H675L672.8,439.3z"/>
	<path class="st20" d="M672.2,455h1.4l1.2,0.1h-0.4L672.2,455z"/>
	<path class="st20" d="M672.2,455.3h1.4l1.2,0.1h-0.4L672.2,455.3z"/>
	<path class="st20" d="M672.2,455.6h1.4l1.2,0.1h-0.4L672.2,455.6z"/>
	<path class="st20" d="M672.2,455.9h1.4l1.2,0.1h-0.4L672.2,455.9z"/>
</g>
</svg>
