<?xml version="1.0" encoding="utf-8"?>
<!-- Generator: Adobe Illustrator 22.1.0, SVG Export Plug-In . SVG Version: 6.00 Build 0)  -->
<svg version="1.1" id="f2059cf3-5beb-4c16-b86e-a491cbb2d73f"
	 xmlns="http://www.w3.org/2000/svg" xmlns:xlink="http://www.w3.org/1999/xlink" x="0px" y="0px" viewBox="0 0 5336.7 3928"
	 style="enable-background:new 0 0 5336.7 3928;" xml:space="preserve">
<style type="text/css">
	.st0{opacity:0.1;fill:#3B8AE0;enable-background:new    ;}
	.st1{opacity:0.9;}
	.st2{fill:#3A3768;}
	.st3{fill:#E6E8EC;}
	.st4{fill:#3B8AE0;}
	.st5{opacity:0.1;enable-background:new    ;}
	.st6{fill:#FFD037;}
	.st7{fill:#A8A8A8;}
	.st8{opacity:0.2;enable-background:new    ;}
	.st9{opacity:0.3;fill:#3A3768;enable-background:new    ;}
	.st10{fill:#FFFFFF;}
	.st11{fill:#514E7F;}
	.st12{fill:#464353;}
	.st13{fill:#FBBEBE;}
	.st14{opacity:5.000000e-02;enable-background:new    ;}
	.st15{fill:#3F3D56;}
	.st16{fill:url(#SVGID_1_);}
	.st17{fill:#2D293D;}
	.st18{opacity:5.000000e-02;}
	.st19{fill:#FFCDD3;}
	.st20{fill:#DCE6F2;}
	.st21{fill:#575988;}
	.st22{opacity:0.1;}
</style>
<title>mobile marketing</title>
<path class="st0" d="M3123.6,542.3c-315-11-615.1-112.6-901.6-223.9s-570.3-234.6-878-293.5c-197.6-37.9-423.8-43.3-583.2,62.7
	C607.4,189.8,557.9,365.7,531.2,529.1c-20.1,123-31.8,252.4,23.1,367.5c38.2,79.9,105.8,147.1,152.7,223.9
	c162.9,266.4,47.8,594.9-128.8,854.9c-82.8,122-178.9,238.5-242.8,368.3c-63.9,129.8-93.5,278.7-37.5,411.1
	c55.4,131.4,187.5,230,330.5,299.4c290.6,140.9,632.8,181.2,966.8,204.1c739.1,50.6,1482.1,28.7,2223.1,6.8
	c274.3-8.1,549.7-16.4,819.5-58.8c149.8-23.6,304.5-60.9,413.2-150.9c138.1-114.5,172.3-308.5,79.8-452.1
	c-155.2-240.9-584.1-300.8-692.7-559.3c-59.7-142.3,1.6-300.8,88.4-432.8c186.1-283.2,498.1-531.5,514.5-855.2
	c11.3-222.3-138.7-444.9-370.6-550.1c-243.1-110.3-580.2-96.4-759.4,86.1C3726.2,479.6,3401.8,551.9,3123.6,542.3z"/>
<g class="st1">
	<path class="st2" d="M3458.5,1211h20.8c6.2,0,11.1,5,11.1,11.1v333.2c0,6.2-5,11.1-11.1,11.1h-20.8c-6.2,0-11.1-5-11.1-11.1v-333.2
		C3447.3,1216,3452.3,1211,3458.5,1211z"/>
	<path class="st2" d="M2025.2,932.6h1.9c6.2,0,11.1,5,11.1,11.1v94.7c0,6.2-5,11.1-11.1,11.1h-1.9c-6.2,0-11.1-5-11.1-11.1v-94.7
		C2014,937.6,2019,932.6,2025.2,932.6z"/>
	<path class="st2" d="M2024.3,1146.8h5c6.2,0,11.1,5,11.1,11.1v181.4c0,6.2-5,11.1-11.1,11.1h-5c-6.2,0-11.1-5-11.1-11.1V1158
		C2013.1,1151.8,2018.1,1146.8,2024.3,1146.8z"/>
	<path class="st2" d="M2024.7,1421.8h3.7c6.2,0,11.1,5,11.1,11.1V1616c0,6.2-5,11.1-11.1,11.1h-3.7c-6.2,0-11.1-5-11.1-11.1v-183.1
		C2013.6,1426.8,2018.6,1421.8,2024.7,1421.8z"/>
	<path class="st2" d="M2217.5,545.9h1063.2c104.8,0,189.8,85,189.8,189.8v2552.7c0,104.8-85,189.8-189.8,189.8H2217.5
		c-104.8,0-189.8-85-189.8-189.8V735.7C2027.8,630.9,2112.7,545.9,2217.5,545.9z"/>
	<path class="st3" d="M2628.8,633.4h163.8c10.4,0,18.8,8.4,18.8,18.8v3.2c0,10.4-8.4,18.8-18.8,18.8h-163.8
		c-10.4,0-18.8-8.4-18.8-18.8v-3.2C2609.9,641.8,2618.4,633.4,2628.8,633.4z"/>
	<circle class="st3" cx="2865.1" cy="653.9" r="23.2"/>
</g>
<ellipse class="st0" cx="1158" cy="3545.7" rx="973.4" ry="99.2"/>
<ellipse class="st0" cx="3322.5" cy="3876.9" rx="456" ry="46.5"/>
<ellipse class="st0" cx="4880.7" cy="3642.6" rx="456" ry="46.5"/>
<path class="st4" d="M3266.7,622.2h-165v19.9c0,52.1-42.2,94.3-94.3,94.3l0,0h-526.6c-52.1,0-94.3-42.2-94.3-94.3c0,0,0,0,0,0v-19.9
	h-155c-63.3,0-114.5,51.3-114.5,114.5c0,0,0,0,0,0v2550.4c0,63.3,51.2,114.6,114.5,114.6c0,0,0,0,0,0h1035.3
	c63.3,0,114.6-51.3,114.6-114.6V736.8C3381.3,673.5,3330,622.2,3266.7,622.2z"/>
<path class="st4" d="M3970.1,417.2c0,0-409.9-24.7-361.5,262.5c0,0-9.7,50.8,36.4,73.8c0,0,0.7-21.3,42-14.1
	c14.7,2.5,29.7,3.2,44.5,2.1c20.1-1.3,39.2-9.2,54.5-22.4l0,0c0,0,115.2-47.6,160-235.9c0,0,33.2-41.1,31.8-51.6l-69.2,29.5
	c0,0,23.6,49.9,4.9,91.4c0,0-2.2-89.6-15.5-87.6c-2.7,0.4-36,17.3-36,17.3s40.7,86.9,9.7,150.1c0,0,11.6-107.1-22.7-143.8
	l-48.7,28.4c0,0,47.5,89.8,15.3,163c0,0,8.2-112.3-25.6-156.1l-44.1,34.4c0,0,44.6,88.4,17.4,149.2c0,0-3.6-130.8-27-140.6
	c0,0-38.6,34.1-44.5,48c0,0,30.6,64.3,11.6,98.1c0,0-11.6-87.1-21.2-87.6c0,0-38.5,57.7-42.4,97.4c0,0,1.7-58.9,33.1-102.8
	c0,0-37.1,6.4-58.9,30.5c0,0,6-40.8,68.1-44.4c0,0,31.8-43.8,40.3-46.4c0,0-62.1-5.2-99.7,11.5c0,0,33.1-38.5,111.1-21l43.5-35.6
	c0,0-81.7-11.1-116.3,1.2c0,0,39.9-34.1,128.1-9.2l47.4-28.3c0,0-69.7-15-111.2-9.7c0,0,43.8-23.6,125.1,2l34.1-15.2
	c0,0-51.1-10-66-11.6c-14.9-1.6-15.7-5.7-15.7-5.7c32.6-5.4,66-1.6,96.5,11C3899.5,448.7,3971.3,421.8,3970.1,417.2z"/>
<path class="st4" d="M3549.7,289.5c0,0-185-11.1-163.4,118.6c0,0-4.3,22.9,16.5,33.3c0,0,0.3-9.7,19-6.4c6.6,1.1,13.4,1.4,20.1,1
	c9.1-0.6,17.7-4.2,24.6-10.1l0,0c0,0,52-21.5,72.3-106.6c0,0,15-18.5,14.6-23.3l-31.3,13.3c0,0,10.7,22.5,2.2,41.3
	c0,0-1-40.5-7-39.5c-1.2,0-16.2,7.8-16.2,7.8s18.4,39.2,4.5,67.8c0,0,5.3-48.4-10.2-65l-22,12.9c0,0,21.5,40.5,6.9,73.7
	c0,0,3.7-50.8-11.5-70.5l-20,15.6c0,0,20.2,40,7.9,67.4c0,0-1.6-59.1-12.2-63.6c0,0-17.5,15.4-20.1,21.7c0,0,13.8,29.2,5.2,44.3
	c0,0-5.3-39.4-9.7-39.6c0,0-17.4,26.1-19.2,43.8c0.8-16.5,6-32.5,14.9-46.4c-10,1.9-19.3,6.7-26.6,13.8c0,0,2.7-18.4,30.9-20.1
	c0,0,14.4-19.8,18.2-21c0,0-28-2.3-45,5.2c0,0,14.9-17.4,50.2-9.7l19.5-16.1c0,0-36.9-4.9-52.6,0.5c0,0,18.1-15.4,57.9-4.2
	l21.4-12.8c0,0-31.4-6.8-50.2-4.3c0,0,19.8-10.7,56.5,0.9l15.3-6.9c0,0-23-4.5-29.8-5.3c-6.8-0.7-7.1-2.6-7.1-2.6
	c14.6-2.4,29.6-0.7,43.3,4.9C3517.5,303.4,3550.2,291.5,3549.7,289.5z"/>
<ellipse class="st4" cx="195" cy="3303.2" rx="195.7" ry="33.1"/>
<path class="st4" d="M275.9,3249c8.9-7.3,15.5-17.1,18.7-28.1c2.4-11.2-2.4-24.3-13-28.7c-12-4.6-24.8,3.7-34.5,12.1
	c-9.7,8.4-20.8,18-33.5,16.2c13.2-12.1,19.2-30.2,15.6-47.8c-0.5-3.6-2-7-4.4-9.7c-6.6-7.1-18.7-4-26.7,1.6
	c-25.3,17.8-32.4,52.2-32.5,83.1c-2.6-11.2-0.4-22.8-0.5-34.1c0-11.2-3.2-24.3-12.9-30.3c-6-3.2-12.7-4.8-19.5-4.6
	c-11.4-0.4-24,0.7-31.8,9.1c-9.7,10.3-7.2,27.7,1.3,38.9c8.4,11.2,21.2,18.5,32.9,26.4c9.4,5.6,17.5,13.3,23.6,22.4
	c0.7,1.3,1.3,2.6,1.8,4h71.3C247.8,3271.4,262.7,3261.1,275.9,3249z"/>
<path class="st4" d="M4042.4,2840.5c0,0,42.1,55.1-19.5,138.2c-61.6,83.1-112.3,153.3-91.8,205.2c0,0,92.9-154.4,168.5-156.6
	C4175.2,3025.1,4125.5,2933.4,4042.4,2840.5z"/>
<path class="st5" d="M4042.4,2840.5c3.7,5.3,6.6,11.1,8.6,17.3c73.7,86.6,113,167.6,42.1,169.5c-66,1.9-145.3,120-164.2,149.8
	c0.6,2.3,1.3,4.6,2.2,6.8c0,0,92.9-154.4,168.5-156.6C4175.2,3025.1,4125.5,2933.4,4042.4,2840.5z"/>
<path class="st6" d="M4120.6,2910.9c0,19.5-2.2,35.1-4.9,35.1s-4.9-15.7-4.9-35.1s2.7-10.2,5.4-10.2S4120.6,2891.4,4120.6,2910.9z"
	/>
<path class="st6" d="M4147.5,2933.9c-17,9.2-31.8,14.9-33.2,12.5s11.5-11.8,28.5-21.1c17-9.3,10.3-2.5,11.6,0
	S4164.5,2924.6,4147.5,2933.9z"/>
<path class="st4" d="M3819.9,2840.5c0,0-42.1,55.1,19.5,138.2c61.6,83.1,112.3,153.3,91.8,205.2c0,0-92.9-154.4-168.5-156.6
	S3736.8,2933.4,3819.9,2840.5z"/>
<path class="st5" d="M3819.9,2840.5c-3.7,5.3-6.6,11.1-8.6,17.3c-73.7,86.6-113,167.6-42.2,169.5c66.1,1.9,145.3,120,164.2,149.8
	c-0.6,2.3-1.4,4.6-2.2,6.8c0,0-92.9-154.4-168.5-156.6C3687.1,3025.1,3736.8,2933.4,3819.9,2840.5z"/>
<path class="st6" d="M3741.6,2910.9c0,19.5,2.2,35.1,4.9,35.1s4.9-15.7,4.9-35.1s-2.7-10.2-5.4-10.2S3741.6,2891.4,3741.6,2910.9z"
	/>
<path class="st6" d="M3714.6,2933.9c17,9.2,31.8,14.9,33.1,12.5s-11.4-11.8-28.5-21.1c-17-9.3-10.3-2.5-11.6,0
	C3706.3,2927.8,3697.7,2924.6,3714.6,2933.9z"/>
<path class="st7" d="M3755,3176.7c0,0,117.8-3.7,153.2-28.9s181.1-55.4,189.8-14.9c8.7,40.5,176.9,201.6,43.8,202.6
	c-133.1,1.1-308.9-20.7-344.3-42.3C3762.2,3271.7,3755,3176.7,3755,3176.7z"/>
<path class="st8" d="M4144.6,3321.4c-132.9,1.1-308.9-20.7-344.3-42.3c-27-16.4-37.7-75.4-41.3-102.6h-3.9c0,0,7.4,95,42.9,116.5
	c35.4,21.6,211.4,43.4,344.3,42.3c38.4-0.3,51.6-14,50.9-34.1C4187.8,3313.6,4173.2,3321.2,4144.6,3321.4z"/>
<rect x="2844.7" y="2374.9" class="st9" width="379.8" height="379.8"/>
<rect x="2284.9" y="1873.5" class="st9" width="379.8" height="379.8"/>
<rect x="2321.4" y="2867.7" class="st9" width="379.8" height="379.8"/>
<rect x="2236.6" y="940.9" class="st10" width="379.8" height="379.8"/>
<path class="st4" d="M2500.3,1064.9l-13.5,13.4c18.6,18.6,18.6,48.7,0.1,67.3c0,0,0,0-0.1,0.1l13.5,13.5
	C2526.3,1133.2,2526.3,1091,2500.3,1064.9z"/>
<path class="st4" d="M2527.2,1039l-13.3,13.3c33,33,33,86.5,0,119.6l13.3,13.3C2567.6,1144.8,2567.6,1079.4,2527.2,1039L2527.2,1039
	z M2464,1088.8v-60.8h-18.7l-56.1,46.7h-74.8l-18.7,9.3v65.5l18.7,9.3l46.9,74.8h28l-17.5-74.8h17.5l56.1,37.4h18.7v-60.8
	c12.9-2.9,21-15.7,18.1-28.6c-2-9-9.1-16-18.1-18.1L2464,1088.8z"/>
<rect x="2945.1" y="2316.3" transform="matrix(0.7415 -0.6709 0.6709 0.7415 -871.1484 2751.2307)" class="st10" width="379.8" height="379.8"/>
<path class="st4" d="M3025,2454l27.6-25l150.9,166.3l-27.7,25.1L3025,2454z M3090.1,2609.8l27.7-25.1l43.8,48.7l-27.7,25.1
	L3090.1,2609.8z M3148.2,2506.8l27.7-25.1l69,76.3l-27.7,25.1L3148.2,2506.8z M3152.1,2427.5l27.7-25.1l106.7,117.9l-27.7,25.1
	L3152.1,2427.5z"/>
<rect x="2838.4" y="1398.6" class="st10" width="379.8" height="379.8"/>
<path class="st4" d="M3100.4,1543l-51,77.9c4.1,5,6.3,11.3,6.3,17.7c-0.6,15.5-13.7,27.5-29.2,26.9c-14.6-0.6-26.3-12.3-26.9-26.9
	c0-1.7,0.2-3.5,0.5-5.2l-33.7-19.5c-9,8.5-22.4,10.2-33.2,4.2l-35.8,33.5v33.4c0,13.8,11.2,24.9,25,25h211.9
	c13.8-0.1,24.9-11.2,25-25v-124.2l-34.1-22.7c-4.9,3.9-11,5.9-17.2,5.9c-2.5,0-5-0.4-7.4-1L3100.4,1543z"/>
<path class="st4" d="M2947,1565.7c15.5,0,28.1,12.5,28.1,28c0,0,0,0,0,0c0,1.2,0,2.5-0.2,3.7l35.1,19.5c5-4.1,11.3-6.4,17.8-6.3
	c2,0,4.1,0.2,6,0.7l51.1-79.2c-9-12.6-6-30.1,6.7-39.1c12.6-9,30.1-6,39.1,6.7c3.3,4.7,5.1,10.4,5.2,16.2c0,2.2-0.3,4.5-0.8,6.6
	l24.3,16.1v-46.8c-0.1-13.8-11.2-24.9-25-24.9h-212.1c-13.8,0-24.9,11.2-25,24.9v134.1l23.4-22.4c-1.2-3.1-1.7-6.4-1.8-9.7
	C2919.1,1578.2,2931.6,1565.7,2947,1565.7z"/>
<rect x="2358.2" y="1822.1" class="st10" width="379.8" height="379.8"/>
<path class="st4" d="M2662.8,1891l-233.7,126.6c-2.4,1.3-3.2,4.2-1.9,6.6c0.5,0.9,1.3,1.7,2.3,2.1l39.9,15c2.3,0.9,4.2,2.6,5.3,4.9
	l31,63.8c0.6,2.8,5.8,3.6,5.8,0.7l-4.9-52.7c0.3-3.9,1.8-7.6,4.3-10.7l121.1-118.7c0.7-0.7,1.7-1,2.7-0.8c1.5,0.4,2.4,1.9,2,3.4
	c-0.1,0.4-0.3,0.8-0.5,1.1l-104.4,127.6c-2.2,3.1-3.6,6.7-4.1,10.5l-6.2,45.5c0.5,4,3.6,5.5,6.1,1.9l22.5-26.4
	c1.6-2.1,4.5-2.5,6.6-1.1l58,42.3c2.3,1.5,5.3,0.8,6.7-1.5c0.3-0.4,0.5-0.9,0.6-1.4l47.6-233.7c0.5-2.6-1.3-5.2-4-5.6
	c-1-0.2-2,0-2.8,0.4L2662.8,1891z"/>
<path class="st4" d="M4730,3566.1c22.1,2.9,45,4.9,66.2-2.2c3.3-1,7-3.3,6.6-6.6c-0.2-1.2-0.8-2.3-1.5-3.2
	c-8-12-14.8-24.7-20.1-38.1c-0.2-0.7-0.6-1.3-1.2-1.7c-0.7-0.3-1.5-0.3-2.1,0c-9.7,2.5-18.2,8.9-27.9,11.5
	c-4.9,1.4-10.1,1.8-15.2,1.2c-4.4-0.5-10.4-4.1-14.4-3.7C4722.8,3537.7,4728.3,3551.4,4730,3566.1z"/>
<path class="st4" d="M5148.3,3529.1c14.6-9.7,29.7-20.5,38.3-36c0.6-0.9,1-2,1-3.1c-0.1-1.1-0.6-2.1-1.2-3
	c-8.2-13-18.8-24.4-31.1-33.6c-6.5,4.6-12.3,10-17.4,16c-3.7,3.8-13.8,10.2-13.9,15.9c0,3.5,3.8,7.2,5.6,9.7c2.4,3.6,4.9,7.3,7,11
	C5137.8,3508.4,5149.4,3528.5,5148.3,3529.1z"/>
<path class="st11" d="M4816.7,3610.8c0.3,3.5-0.6,6.9-2.6,9.7c-1.6,1.5-3.5,2.7-5.6,3.3c-31,11.1-66.6-2.8-97.4,8.2
	c-6.4,2.2-12.4,5.5-18.7,7.6c-7.6,2.3-15.3,3.7-23.2,4.1c-11,1.1-21.9,1.7-32.9,2c-8.3,0.6-16.6-0.1-24.7-2.1
	c-8.2-2.1-15.1-7.6-19-15c-1.7-3.3-2-7.2-0.9-10.7c0.5-1.3,1.1-2.4,2-3.5c2.1-2.3,4.6-4.3,7.3-5.9l11.4-7.4
	c5.3-3.8,11.1-6.9,17.2-9.2c4.5-1.5,9.3-2.1,13.8-3.4c16-4.9,28.2-17.4,39.5-29.5l15.5-16.5c1.4-1.8,3.3-3.3,5.4-4.3
	c2.1-0.7,4.4-1,6.6-0.7c15,1.1,29.6,6,42.2,14.2c3.3,2.4,6.8,4.4,10.4,6.1c9.8,2.9,20.4,1.5,29.2-3.7c4-2.1,3.1-3.4,4.9-7.2
	c1.8-3.7,5.7-6.2,9.2-2.7c1,1.2,1.8,2.6,2.2,4.2c3.4,11.1,2.1,22.9,2.1,34.4c-0.1,1.8,0.1,3.6,0.7,5.4c0.9,1.7,1.9,3.3,3,4.9
	c0.3,0.4,0.5,0.8,0.6,1.3C4816.9,3599.7,4817.5,3605.3,4816.7,3610.8z"/>
<path class="st12" d="M4816.7,3610.8c0.3,3.5-0.6,6.9-2.6,9.7c-1.6,1.5-3.5,2.7-5.6,3.3c-31,11.1-66.6-2.8-97.4,8.2
	c-6.4,2.2-12.4,5.5-18.7,7.6c-7.6,2.3-15.3,3.7-23.2,4.1c-11,1.1-21.9,1.7-32.9,2c-8.3,0.6-16.6-0.1-24.7-2.1
	c-8.2-2.1-15.1-7.6-19-15c-1.7-3.3-2-7.2-0.9-10.7c0.5-1.3,1.1-2.4,2-3.5c1.9,3.8,3.2,8.8,4.3,10.6c3.1,5.4,8.4,9.3,14.6,10.5
	c4.5,0.2,8.9-0.3,13.2-1.7c28-7,57.8-7.1,84.7-17.6c9-4.2,18.2-7.8,27.7-10.7c9.9-1.5,19.9-2.3,30-2.4c15.8-1.3,31.1-6,46.7-8.5
	C4816.8,3599.7,4817.4,3605.3,4816.7,3610.8z"/>
<path class="st11" d="M5219,3527.2c-1.5,11.7-8.9,21.9-17.1,30.4c-8.7,8-16.7,16.7-23.9,26.1c-8.1,12.3-11.6,27.4-22.1,37.8
	c-3.9,3.8-8.4,7.1-13.2,9.7c-5.4,3.2-11.2,5.9-17.2,7.9c-15.5,4.9-32.3,3.8-48.7,2.7c-5.3-0.1-10.5-1.1-15.4-3
	c-2.3-1.1-4.5-2.4-6.5-3.9c-4-2.6-7.3-6-9.7-10.1c-1.2-2.2-1.5-4.8-0.9-7.3c1-2.8,2.6-5.2,4.9-7.1c3.7-3.8,7.6-7.3,11.7-10.6
	c5.7-3.7,10.9-8.2,15.3-13.4c2.7-4.1,4.7-8.7,5.9-13.4c2.3-8.3,3.8-16.9,4.3-25.6c0-5.7,0.6-11.5,1.8-17.1c2.5-8.8,9-16.7,8.2-25.8
	c-0.3-1.3-0.2-2.7,0.3-3.9c0.8-0.9,1.9-1.6,3.1-1.9c5.1-2,10.5-3.2,16-3.7c5.5-0.3,10.8,1.8,14.6,5.8c2.3,2.7,3.7,6.5,7.1,7.7
	c1.6,0.3,3.3,0.3,4.9,0c8.2-0.8,16.9-1.8,23.2-7.2c6.1-5.4,9.6-13.1,9.7-21.3c0-3-1.4-6.2,3.3-6.8c3.6-0.5,6.3,3.2,8.1,5.6
	c7.1,8.3,12.4,18,15.6,28.5c0.9-0.4,2-0.6,3-0.6c4.2-0.1,8.2,2,10.6,5.5C5218.7,3516.8,5219.9,3522.1,5219,3527.2z"/>
<path class="st12" d="M5219,3527.2c-1.5,11.7-8.9,21.9-17.1,30.4c-8.7,8-16.7,16.7-23.9,26.1c-8.1,12.3-11.6,27.4-22.1,37.8
	c-3.9,3.8-8.4,7.1-13.2,9.7c-5.4,3.2-11.2,5.9-17.2,7.9c-15.5,4.9-32.3,3.8-48.7,2.7c-5.3-0.1-10.5-1.1-15.4-3
	c-2.3-1.1-4.5-2.4-6.5-3.9c-4-2.6-7.3-6-9.7-10.1c3.1-1.5,6.6-2.3,10-2.4c7.3,0.4,12.5,7.2,19.5,9.3c9.7,3,19.5-4,29.6-6.4
	c6.5-1.5,13.4-1.1,19.8-3.2c5.3-2.1,10.3-5.1,14.6-8.9c5.9-4.2,11.2-9.3,15.6-15.1c3.7-5.8,6.8-11.9,9.2-18.3
	c5.3-12.3,11.5-24.1,18.5-35.5c1-1.8,2.3-3.4,3.8-4.9c1.5-1.4,3.4-2.4,4.9-3.7c6.7-4.9,9.4-13.5,11.8-21.5c0.6-2.5,1.5-4.9,2.6-7.2
	c4.2-0.1,8.2,2,10.6,5.5C5218.7,3517,5219.8,3522.2,5219,3527.2z"/>
<path class="st13" d="M4519.7,2487.4c8.2,6.2,15,14.1,19.9,23.2c4.9,9.2,31.6,80.2,30,90.4c8.8-8.9,43.5-10.3,52.2-19.1
	c3.7-3.7,23.7-22.2,26.7-26.5s25.3-13.5,27.7-17.9c9.1-16.3-64.5-77.9-55.2-94.2c0.5-0.7,0.8-1.6,0.8-2.5c-0.2-0.8-0.6-1.4-1.2-1.9
	c-6.5-5.6-13.7-10.5-21.3-14.6c-7.7-4.2-13.5-11.1-16.3-19.5c-6.9,3.2-13.3,7.5-18.8,12.8c-13.5,11.5-26.7,23.3-39.8,35.4
	c-5.2,4.9-15,11.1-17.4,17.8S4514.8,2483.4,4519.7,2487.4z"/>
<path class="st11" d="M4638.9,2461.1c-11.3,7.6-21.9,16.2-31.5,25.8c-9.2,9-17.8,19.5-20.1,32.2c-0.9,4.9-0.8,10-1.6,15
	c-3.3,21.8-22.2,37.8-30.5,58.4c-2.4,6.3-4.2,12.8-5.4,19.5c-2.3,12.6-3.6,25.4-3.8,38.3c0,12.5,12,21,16.5,32.7
	c3.7,11.5,6.4,23.4,7.9,35.4c4.9,22.4,11.5,44.4,19.9,65.7c16.5,45.4,69.8,171,86.2,216.5c50.4-12.7,184.5-41.7,229.1-68.1
	c14.9-8.9-103.2-108.9-87.3-115.9c1.8-0.6,3.4-1.7,4.4-3.4c0.5-1.6,0.5-3.3,0-4.9c-15.9-69.6-65.7-126.6-88.2-194.7
	c-7.8-23.5-21.9-43.6-32.6-66c-9.7-20.3-14.8-42.6-26.4-61.8c-2.2-4-5.1-7.5-8.4-10.6c-2.9-2.2-6-4.1-9.3-5.6
	C4651.5,2466.3,4645.3,2464.4,4638.9,2461.1z"/>
<circle class="st13" cx="4522.4" cy="2400.6" r="78.9"/>
<path class="st12" d="M4602.6,2437.6c8.1-7.4,19.8-9.1,29.6-4.2c5.6,2.4,9.1,8.1,8.8,14.2l38.9,0.6c6.2-0.1,12.4,0.4,18.5,1.7
	c6.1,1.3,11.6,4.8,15.5,9.7c0.5,0.6,1,1.4,1.8,1.5c0.7,0,1.3-0.2,1.8-0.6c6-3.1,12.8-4.3,19.5-3.5c21.1,1.4,40.7,12,57.2,25.2
	c3,2,5.4,4.9,6.8,8.3c1.4,4.4,0,10.1,3.2,13.1c0,36.8,12.6,71,21,106.8c1.5,6.4,7.6,12,11.8,17c5.2,5.5,9.5,11.9,12.7,18.9
	c7.1,18.5-2.7,40.3,4.2,58.9c3.5,7.6,8,14.7,13.4,21.2c6.3,7.9,10.2,17.4,11.4,27.4c0.3,4.5-0.3,9,0,13.5c0.4,6,1.5,11.9,3.2,17.7
	c2.8,10.8,5.8,21.5,9,32.2c4.9,17.3,11.7,36.1,27.2,45.3c-37.5,6.4-77.1,12.6-112.8-0.4c-5-1.7-9.7-4.1-14.1-7.1
	c-12.9-9.2-19.1-25-24.7-39.8c-6.2-16.7-12.6-33.6-13.8-51.4c0-5.7-0.8-11.3-2.3-16.8c-3.7-9.7-13.3-15.5-22.1-20.9
	c-9.9-5.5-18.9-12.5-26.6-20.7c-7.8-8.4-11.7-19.7-10.8-31.2c0.7-5.5,2.8-10.8,3.1-16.4c0.7-5.7-2.4-11.1-7.6-13.5
	c-27.3-8.3-40.4-40.6-46.4-68.5c-2.6-14.4-3.8-29.1-3.5-43.8l-0.3-28.2c-7.6-6.9-12.1-16.7-12.3-27c0.4-3,0.4-6,0-8.9
	c-1.3-3.7-3.4-7-6.2-9.7C4611.6,2452.2,4606.5,2445.3,4602.6,2437.6z"/>
<path class="st12" d="M4518.6,2527.8c-0.9,8.8,1.1,17.8-0.9,26.5c-0.8,3.3-2.1,6.5-3.1,9.7c-2.9,12.4-1.7,25.5,3.7,37.1
	c5.3,11.5,11.6,22.5,18.9,32.9c2.5,3.5,4.6,7.3,6.1,11.3c1.3,4.2,2,8.6,2.3,13c1.9,17.6,5,35.1,9.3,52.3c3.7,15,8.5,30.1,18.4,42
	c1.8,2.6,4.5,4.4,7.6,5.2c2.2,0.1,4.5-0.4,6.5-1.4l20.2-7.6c1.8-0.5,3.4-1.4,4.9-2.5c1.8-2.2,2.8-5,2.8-7.9
	c1.4-16.3-3.5-32.4-8.9-47.8c-16.4-46.4-38.1-91.2-48.7-139.2c-3-13.4-4.5-34.1-14.3-44.5c-4-4.4-2.7-2.5-7.5,0
	c-2.4,1.1-4.8,2.3-7.1,3.7C4523,2514.5,4519.2,2520.8,4518.6,2527.8z"/>
<path class="st12" d="M4903.5,2816.8"/>
<path class="st4" d="M4579.3,2615.9c5.4,28.3,10.8,56.7,16.4,85l78.3-20.5c0.6-8.2-3.7-15.8-6.8-23.4c-7.2-17.9-7.3-37.8-13.1-56.2
	c-4.4-14-12-26.9-16.1-41c-2.4-8.2-3.6-16.7-5.9-25c-2.5-8.1-5.6-16.1-9.2-23.8c-4.4-11.2-10.2-21.8-17.1-31.7
	c-10,3.7-20.7,8.1-26.4,17.1c-3,5.1-4.6,10.9-4.9,16.8c-1.4,17.6,4.9,35.3,2.9,52.7C4575.4,2582.6,4576,2599.5,4579.3,2615.9z"/>
<path class="st12" d="M4675.3,2993.6c4.4,16.7-2,34.1-7.2,50.7c-7.8,24.9-13.2,50.5-16,76.4c-0.3,6.7-1.6,13.2-3.9,19.5
	c-2.9,5.3-6.1,10.5-9.5,15.6c-7.9,13.9-7.7,31-6,46.9c1.1,10.5,2.8,21,4.9,31.3c2.6,12.6,5.7,25.8,2,38.2c6.2-1.4,10.4,6.6,10.2,13
	c-0.2,6.4-2.5,13.2,0.5,18.8c7.7,2.8,7.8,13.3,7.5,21.5c0.1,14.2,1.9,28.3,5.3,42.1c11.6,55.8,24,111.4,37,166.9
	c28.2,8.8,61.1,17.9,88,5.7c5.3-1.7,9.5-5.9,11.1-11.2c0.3-2.9-0.1-5.9-1.1-8.6l-12.8-46.3c-3.8-10.9-5.4-22.5-4.6-34.1
	c1.3-8.6,4.9-17.9,0.8-25.4c-1.5-2.6-3.7-4.9-5.4-7.1c-6.7-9.7-3.2-22.8-2.6-34.7c0.2-2.7,0-5.3-0.6-7.9c-0.9-3-2.2-6-3.7-8.7
	c-10.5-20.4-15.5-43.2-14.6-66.2c0.4-2.9,0-5.9-1.2-8.7c-0.8-1.1-1.6-2.3-2.1-3.5c-0.5-2.1-0.3-4.4,0.7-6.4
	c-3.8-2.8-7.3-6.1-10.3-9.7c6.8-4.4,8.7-13.4,4.3-20.2c-0.5-0.8-1.1-1.6-1.8-2.3c4.1-0.8,6.7-4.7,5.9-8.8c-0.3-1.6-1.1-3-2.3-4.1
	c-1.7-1.2-3.8-1.7-4.9-3.3c-1.8-2.4-0.3-5.9,1.1-8.5l7.8-14.1c5.8-10.4,7.1-23.3,13.3-33.5c8.4-14.9,15.3-30.6,20.5-46.9l22.2-61.8
	l15.1,13.1c5,3.8,9.3,8.7,12.4,14.2c2.1,5.4,3.5,11.1,4,16.9c5.5,33.6,26.7,62.7,34.6,95.8c1.1,7.5,3.5,14.8,7.1,21.4
	c1.5,1.9,2.9,4,4.1,6.1c1.1,3.3,1.7,6.7,1.7,10.2c1.4,13.7,8.7,26.2,20,34.1c7.4,4.9,16.8,8.6,20.7,16.7c0.8,2.5,2,4.9,3.4,7.1
	c3.6,4.3,11.4,4.9,12.9,10.3c0.8,3.1-0.8,6.7,1,9.3c0.9,1.2,2.2,2.2,3.7,2.7l21.8,10.9c24.3,12.1,36.6,39.9,54.6,60.3
	c6.2,6.6,11.7,13.8,16.3,21.6c7.7,13.8,11.3,31.2,24.3,40.1c3.5,1.8,6.7,4.2,9.4,7c4.1,5.4,2.6,13,3,19.8s5.6,14.9,12.1,12.9
	c-2.3,8.2-2.3,16.9,0,25.2c28.4-1.5,55.5-12.4,76.9-31.2c6.3-5.5,12.5-12.6,12.5-21c0.1-1.5-0.2-2.9-0.9-4.2
	c-1.3-1.7-2.9-2.9-4.9-3.7c-20.3-11-26.4-36.5-36.6-57.2c-9-18.3-22.2-34.1-33.5-51c-24.3-36.5-40.6-80.7-77.2-104.8
	c-8-5.3-17.4-10-21.4-18.8c-1.7-5.1-3.1-10.3-4.3-15.6c-1.4-5.3-6-9.2-11.4-9.7c2.3-7.9,3.2-16.1,2.6-24.3c0.2-3.5-0.2-7.1-1.2-10.5
	c-1.4-3.6-3.2-7.1-5.4-10.3c-9.5-16.2-14.3-34.8-13.8-53.5c0.3-9.7,2-19.5-0.9-28.8c-1.5-4.9-4-8.9-5.8-13.4
	c-2.7-8.1-4.1-16.5-4.2-25.1l-2-32.1c-0.3-10.7-1.7-21.3-4.1-31.7c-6.8-24.9-13.2-129.1-36.2-140.8c-22.9-11.7-62.1,68.4-87.6,70
	c-11.4,0.5-22.7,2.7-33.5,6.4c-17.1,6.4-31.4,18.4-45.4,30.1l-47.3,39.7C4695.7,2980.5,4685.8,2987.6,4675.3,2993.6z"/>
<path class="st12" d="M4448.3,2313c11.2-14,28-22.2,45.9-22.4c17.7,0,35.1,4.4,50.7,12.8c4.6,2.6,9.5,4.7,14.6,6.1
	c8.4,1.7,17.6-0.6,25.2,3.4c10,5.3,11.9,18.8,11,30.1c-0.9,11.3-3,23.7,3,33.3c2.1,2.8,4,5.7,5.8,8.7c1.9,6.1,1.7,12.6-0.5,18.5
	c-3.5-3.9-6.7-8-9.7-12.2c-3.5-3.8-9.5-6.5-13.8-3.6c-4.3,2.9-4.3,8.2-4.5,12.9c-0.2,4.7-1.5,10.4-5.9,12c-3.7,0.7-7.5-0.8-9.7-3.9
	c-7.6-9.3-4.6-24.3-12.1-33.7c-4.3-5.4-11.5-7.9-15.5-13.5c-3.1-4.4-3.9-10.1-6.6-14.6c-2.7-4.5-9.1-8.2-13.4-4.9
	c-1.4,1.4-2.6,3.1-3.6,4.9c-5.4,7.8-15.5,10.8-24.3,7.3c-3.3-2-6.9-3.5-10.6-4.5c-4.9-0.3-9.6,2.2-12,6.5c-2.3,4.3-3.4,9.1-3.2,13.9
	c0,6.6,1.2,13.8-2.6,19.1c-1.6,2-3.5,3.6-5.6,4.9c-5.6,3.6-13.2,5.9-18.5,1.9c-3.5-3.3-5.1-8.2-4.1-12.9c1-4.6,2.3-9.2,3.9-13.7
	c2.9-10.3-0.9-22,2.3-31.7C4437.9,2328.9,4442.6,2320.5,4448.3,2313z"/>
<path class="st4" d="M4490.6,2548.3c-0.5,2.4-0.2,5,0.7,7.3c1,1.6,2.3,2.9,3.9,3.8c11.2,7,24,11.1,37.2,12c1.7,0.1,3.4,0.5,4.9,1.3
	c2.8,2.6,3.7,6.8,2.2,10.4c-1.5,3.5-2.3,7.2-2.3,11c1,7,9.2,10.1,16.2,11c9.7,2,19.9,0,28.2-5.5c5.2-4.8,9.2-10.8,11.6-17.5
	c19.1-43.8,25.8-92.5,45.2-136.3c1.5-2.8,2.5-5.9,2.9-9.1c0.4-3.3-1-6.5-3.6-8.4c-3.6-2.2-9.2-1-11.6-4.4c-1.2-1.8-1.1-4.2-2.1-6
	c-2.2-4-8.1-3.5-12.1-5.6c-3.1-1.7-5.3-4.9-8.8-5.8c-3.5-0.2-6.9,1.3-9.2,3.9c-11.3,10.6-17.3,25.7-23.7,39.9
	c-9.8,21.8-21.1,42.8-34.1,62.8c1.5-2.3-7.2-20.1-10.6-20.8c-5.9-1.2-13.6,9.2-16.8,13.2C4498.8,2517.7,4492.5,2532.6,4490.6,2548.3
	z"/>
<rect x="4530.4" y="2610.6" class="st10" width="379.8" height="379.8"/>
<path class="st4" d="M4723.3,2738.1v-49.8h-124.5v224.4h243.1v-174.6H4723.3z M4648.6,2887.7h-24.9v-24.9h24.9V2887.7z
	 M4648.6,2837.9h-24.9v-24.9h24.9V2837.9z M4648.6,2788h-24.9v-25h24.9V2788z M4648.6,2738.1h-24.9v-25h24.9V2738.1z M4698.4,2887.7
	h-24.8v-24.9h24.9L4698.4,2887.7z M4698.4,2837.9h-24.8v-24.9h24.9L4698.4,2837.9z M4698.4,2788h-24.8v-25h24.9L4698.4,2788z
	 M4698.4,2738.1h-24.8v-25h24.9L4698.4,2738.1z M4817,2887.7h-93.8v-24.9h24.9v-24.9h-24.9v-24.9h24.9v-25h-24.9v-24.9h93.8V2887.7z
	 M4795.2,2788h-24.9v25h24.9V2788z M4795.2,2837.9h-24.9v25h24.9V2837.9z"/>
<path class="st13" d="M4907.2,2819.8c-6.5,5.8-12.6,12.1-18,18.9c-5.5,6.9-8.5,15.5-8.3,24.3c0,2.6,0.9,5,2.3,7.1
	c1.6,2.1,4.3,2.9,6.8,2.1c1.3-0.7,2.5-1.7,3.3-3c3.5-4.3,7.3-8.3,11.2-12.2c1.5-1.4,3.3-2.9,5.3-2.4c0.9,0.3,1.7,0.8,2.3,1.5
	c2.3,1.9,4,4.5,4.9,7.4c0.5,5.3-1.4,10.5-5.2,14.2c-3.8,3.6-6.8,8-8.7,12.9c-0.5,1.3-0.5,2.8,0,4.1c0.7,1,1.5,1.7,2.6,2.2
	c9.7,5.3,21.2,6,31.5,2c6.8-2.7,12.6-7.4,19.5-9.7c3-0.8,5.9-1.9,8.6-3.2c4-2.6,6.7-6.7,7.6-11.4c0.9-4.6,1-9.4,0.5-14.1
	c-0.9-18.2-4.8-36.2-11.7-53.1c-0.4-1.1-1-2.1-1.9-2.8c-1-0.6-2.1-0.9-3.2-0.9c-8.5-0.9-22.5-5.3-30.8-2.1c-2.9,1.6-5.4,3.8-7.3,6.5
	C4916.6,2809.9,4907.2,2817.6,4907.2,2819.8z"/>
<path class="st12" d="M4904.3,2812.3c0-8.2-10.1-27.8,5.9-29.2c0-8.7-12.3-14.1-10.1-23.3c0.8-3.1,3.3-5.6,3.7-8.7
	c1-8.9-15-13.7-12.4-22.3c1-3.3,4.5-5.3,5.3-8.6c1.8-7.7-12-11.1-12.2-19c0-2.7,1.5-5.2,1.4-7.8c0-3.4-2.9-5.9-4.5-8.8
	c-4.1-7.4-2.1-19-9.7-22.8c4.9,0.4,6.8-7.1,4.6-11.6c-2.1-4.6-6.3-8.5-6.3-13.6c0.2-1.9,0.2-3.7,0-5.6c-1.4-4.9-9.4-5.2-10.7-10.1
	c-0.1-1.8-0.1-3.7,0-5.5c-0.5-3.8-4.4-6.1-8-7.3c-3.8-0.6-7.4-1.9-10.7-3.8c-2.3-1.8-4.9-4.9-7.5-3.2c-0.9,0.5-1.4,1.6-2.1,2.4
	c-3,3.5-8.7,1.9-12.5-0.6c-11.1-7.5-16.6-21.1-19.1-34.4c-2.4-13.2-2.3-26.9-5.2-40.1c-0.9-4.1-2.1-8.1-3.6-12
	c-2.3-3.8-4.2-7.8-5.6-12c-0.6-7.6,15.3-2.4,21.3-1.7c5.9,0.5,11.7,1.6,17.3,3.3c6,2.3,11.9,4.9,17.7,7.7
	c24.3,10.7,53.2,12,72.5,29.8c6.4,5.9,11.7,13.6,20,16.2c3.8,0.8,7.5,1.7,11.2,2.9c9.2,4.3,10.6,16.5,15.6,25.3
	c1.6,2.3,2.9,4.8,4.1,7.3c0.9,3,1.4,6.2,1.3,9.3l0.7,23.1c1.1,38.9,2.3,77.5-1.9,116c-1.4,12.7-3.3,25.8,0.4,38
	c1,3.3,2.4,6.5,3.2,9.7c0.8,4,1.2,8,1.3,12l0.5,14.9c0.2,1.2-0.1,2.4-0.7,3.5c-1.1,0.9-2.6,1.3-4,1c-20.9-1.8-41.9-13.6-61.6-6.5"/>
<path class="st13" d="M4516.1,2751.3c-0.9,0.5-1.7,1.1-2.3,1.9c-4.3,5.9-4.3,13.9,0,19.8c0.5,0.6,0.9,1.2,1.2,1.9
	c0.1,1.1-0.1,2.3-0.6,3.3c-2.1,4-1.5,8.9,1.5,12.3c1.5,1.3,3.6,1.9,4.5,3.6c1.7,2.8-0.7,6.4-0.3,9.7c0.5,4.3,5.6,6.5,9.7,7
	c3.4,0.8,7-0.1,9.5-2.5c1.7-2.6,1.7-6,0-8.6c-1.7-2.5-3.9-4.7-6.4-6.4c4.9-0.3,8.8-4.1,9.2-8.9c0.3-4.7-1.7-9.3-5.5-12.1
	c-0.9-0.7-1.9-1.5-2.2-2.6c-0.2-1.2,0.9-2.8,2-3.9c4.9-4.9,8.6-16.8-0.5-19.5c-3.2-0.6-6.6-0.4-9.7,0.4c-2.3,0.7-2.3,2.1-4.1,3.1
	C4520.1,2750.7,4518.1,2750.2,4516.1,2751.3z"/>
<path class="st5" d="M4611.8,2415c-4.9,0.1-9.4,2.4-12.4,6.2c-3.1,5-4.8,10.7-5.2,16.6c-3,18.7-9.6,36.7-19.5,52.9"/>
<path class="st5" d="M4628.8,2428.4c-6.7,0.1-12.9,3.8-16.2,9.7c-2.2,5.3-3.6,10.8-4.1,16.5c-2.9,12.6-8.4,24.4-16.2,34.6"/>
<path class="st13" d="M1488.3,2738.5c2.8,30.8-20.4,60.6-13.6,90.6c1.5,6.4,4.2,12.5,5.3,19c2.8,17.9-7.9,34.8-18.1,49.7
	l-87.3,128.2c-3.5,5.6-7.7,10.8-12.5,15.4c-16.7,14.6-41.8,13.3-63.7,17.7c-15.4,3.2-30,9.6-42.6,18.9c-1.2,0.9-1.5,2.6-0.6,3.8
	c7.4,10,19.3,15.6,31.7,14.9c2.3,3,0,7.4-3.2,9.7c-4.9,3.3-11.1,4.1-12.1,12.1c-0.3,2.8,0.2,5.6,1.6,8c3.5,5.4,9,9.2,15.3,10.6
	c30.2,9.2,62.9-7,85.5-29.2c22.6-22.2,38.9-50,61.1-72.5c12.3-12.4,26.3-23.1,38.9-35.2c25.3-24,44.9-53.5,63.9-82.8
	c6.2-8.5,10.9-18,13.8-28.1c2.3-10,1.3-20.6,4-30.5c3.5-12.9,13-23.3,20.9-34.1c15.5-21.3,25.8-47.5,23.8-73.7
	c-2-26.3-18.3-52.3-43.1-61.2c-7.7-3.1-16.3-3.6-24.3-1.5c-10.2,3.2-17.7,11.6-24.6,19.5l-16.6,19.2c-4.2,4.2-7.5,9.1-9.7,14.6
	c-2.2,5.6-0.8,12,3.4,16.3"/>
<path class="st14" d="M305.2,562.6c0.6,6.3-4.2,12.4-2.8,18.6c0.3,1.3,0.9,2.6,1.1,3.9c0.6,3.7-1.6,7.2-3.7,10.2l-17.9,26.3
	c-0.7,1.2-1.6,2.2-2.6,3.2c-3.4,3-8.6,2.7-13.1,3.6c-3.2,0.6-6.2,2-8.8,3.9c-0.2,0.2-0.3,0.5-0.1,0.8c1.5,2.1,4,3.2,6.5,3.1
	c0.5,0.6,0,1.5-0.6,2c-1,0.7-2.3,0.8-2.5,2.5c-0.1,0.6,0,1.1,0.3,1.6c0.7,1.1,1.8,1.9,3.1,2.2c6.2,1.9,12.9-1.4,17.6-6
	s8-10.3,12.6-14.9c2.5-2.5,5.4-4.8,8-7.2c5.2-4.9,9.2-11,13.1-17c1.3-1.7,2.2-3.7,2.8-5.8c0.5-2.1,0.3-4.2,0.8-6.3
	c0.7-2.7,2.7-4.8,4.3-7c3.2-4.4,5.3-9.8,4.9-15.2s-3.8-10.7-8.9-12.6c-1.6-0.6-3.3-0.7-5-0.3c-2.1,0.7-3.6,2.4-5.1,4l-3.4,3.9
	c-0.9,0.9-1.5,1.9-2,3c-0.4,1.2-0.2,2.5,0.7,3.3"/>
<path class="st13" d="M823.1,2869.2c4.9,15.4,9.7,30.8,15.6,45.8c10.8,26,24.3,50.7,40.5,73.8c10.4,15.2,21.5,29.8,33.4,43.8
	c14.9,17.6,31.5,35.2,36.8,57.7c3.1,12.9,2,26.5,3.3,39.8c1.3,13.2,5.6,27.3,16.3,35.2c8.1,5,17.3,8.1,26.9,8.9
	c6.7,1.1,15.1,1.4,18.6-4.4c1.2-2.4,1.9-5,1.8-7.7l1.7-19.5c0.3-4.2,1.8-9.7,6-9.7c4.2,0,6.3,5.4,9.7,7.9c5.1,2.8,11.5,0.9,14.3-4.3
	c0.1-0.2,0.2-0.4,0.3-0.6c2.2-5.4,2.3-11.5,0.4-17c-5.9-22.3-21-41-41.5-51.5c-7.1-2.9-13.8-6.4-20.3-10.6
	c-6.5-5.6-11.9-12.4-15.9-20.1c-36.8-60.6-73.8-121.7-99.8-187.5c-5.1-11.8-8.6-24.2-10.3-36.9c-0.5-13,0-26,1.6-38.9
	c1.5-23.4-0.6-46.8-6.4-69.5c-1.3-6-3.5-11.7-6.7-16.9c-10.7-16.3-35.8-18.6-51.7-7.4c-11.8,9.1-19.3,22.7-20.5,37.6
	c-1.2,13.1,6.4,26.8,10.3,38.9C799.4,2793.8,811.3,2831.5,823.1,2869.2z"/>
<path class="st14" d="M168.5,589.4c1,3.2,2,6.3,3.2,9.4c2.2,5.3,5,10.4,8.3,15.2c2.1,3.1,4.4,6.1,6.9,9c3.1,3.6,6.5,7.2,7.6,11.8
	c0.6,2.7,0.4,5.5,0.7,8.2s1.1,5.6,3.4,7.2c1.7,1,3.6,1.7,5.5,1.8c1.4,0.2,3.1,0.3,3.8-0.9c0.3-0.5,0.4-1,0.4-1.6l0.3-4
	c0.1-0.9,0.4-2,1.2-2s1.3,1.1,2,1.6c1.1,0.6,2.4,0.2,2.9-0.9c0,0,0-0.1,0.1-0.1c0.4-1.1,0.5-2.4,0.1-3.5c-1.2-4.6-4.3-8.4-8.5-10.6
	c-1.5-0.6-2.8-1.3-4.2-2.2c-1.3-1.2-2.4-2.6-3.3-4.1c-7.6-12.5-15.2-25-20.5-38.5c-1.1-2.4-1.8-5-2.1-7.6c-0.1-2.7,0-5.3,0.3-8
	c0.3-4.8-0.1-9.6-1.3-14.3c-0.3-1.2-0.7-2.4-1.4-3.5c-2.2-3.3-7.4-3.8-10.6-1.5c-2.4,1.9-4,4.7-4.2,7.7c-0.2,2.7,1.3,5.5,2.1,8
	C163.6,573.9,166.1,581.7,168.5,589.4z"/>
<path class="st15" d="M1561.8,3447.2c-19.1,11.6-42.8,12.3-65,9.7c-3.6-0.4-7.8-0.7-10.1,2c-3.3,4,0.6,9.7,4.6,13.1
	c13.1,9.8,28.5,16.1,44.7,18.4c14.5,2,29.2,3,43.8,2.9c39.9,0.7,79.9,1.3,119.4-4.4c2.3-0.2,4.5-0.8,6.5-1.9
	c2.5-1.8,4.2-4.5,4.9-7.5c1.9-10.7-2-21.5-10.4-28.4c-8.3-6.6-17.7-11.7-27.8-14.9l-34.7-13.5c-8.1-3.2-21.2-11.6-30-10.9
	C1591.3,3412.9,1575.5,3439.1,1561.8,3447.2z"/>
<path class="st15" d="M1648.8,3528.7c-16,14.3-36.7,22.1-58.2,21.7c-5.5,0-13,1-13,6.5c0.1,1.6,0.6,3.2,1.6,4.5
	c6.8,11.3,17.5,19.7,30.1,23.6c11.9,2.8,24.2,3.6,36.3,2.3l35.5-1.8c6.7-0.3,13.5-0.7,20.2-1.5c6.7-0.8,13.9-2.2,20.9-3.3
	c17.1-2.4,34.5-3.2,51.7-2.4c4.5,0.9,9.3-0.4,12.8-3.4c3.2-4,1.3-9.7,0.3-14.6c-2.1-10.3,0-21.1-2-31.4c-3.4-18.1-19-32-36.3-38.6
	c-16-6.1-44.3-13-59.4-2.9C1673,3497.9,1663.2,3515.7,1648.8,3528.7z"/>
<path class="st12" d="M1578.6,3068.8c-14.6,19.2-29.2,41.4-25.8,65.2c1.9,12.8,9.1,24.1,14.4,36c6.6,16.3,11.5,33.2,14.6,50.5
	c5.4,25.2,10.8,50.4,14.2,75.9c3.7,28.9,4.8,58.1,3.2,87.1c-0.4,7-1.2,14.6-6.1,19.5c-1.9,1.9-4.5,3.6-5.3,6.2
	c-0.5,2.5-0.1,5.1,1.1,7.3c8.9,18.3,24.4,32.5,43.3,39.9c18.8,7.2,38.8,10.9,58.9,11c2.7,0.3,5.4,0,7.9-1c2.7-1.6,4.8-4.1,6.1-7
	c14.6-27.7,6.5-61.2,6.7-92.5c0-26.1,6.3-52,5.2-78.2c-0.9-20.9-6.5-41.4-8.6-62.3c-3.4-34.1,2.9-68.6,9.2-102.5
	c4.9-25.9,9.7-51.8,15.8-77.5c3.1-15.8,8.8-31,16.7-45c6.8-10.8,16.1-19.8,23.9-29.9c21.5-28.3,31.1-63.9,26.7-99.2
	c-0.5-3.5-50.1,12.6-54.4,14.6c-17.9,7.5-34.4,18.1-48.7,31.2c-11.5,10.9-20.5,25.5-30.6,37.8c-14.2,17.3-28.2,34.7-42,52.2
	C1609.4,3028.3,1593.9,3048.5,1578.6,3068.8z"/>
<path class="st14" d="M1578.6,3068.8c-14.6,19.2-29.2,41.4-25.8,65.2c1.9,12.8,9.1,24.1,14.4,36c6.6,16.3,11.5,33.2,14.6,50.5
	c5.4,25.2,10.8,50.4,14.2,75.9c3.7,28.9,4.8,58.1,3.2,87.1c-0.4,7-1.2,14.6-6.1,19.5c-1.9,1.9-4.5,3.6-5.3,6.2
	c-0.5,2.5-0.1,5.1,1.1,7.3c8.9,18.3,24.4,32.5,43.3,39.9c18.8,7.2,38.8,10.9,58.9,11c2.7,0.3,5.4,0,7.9-1c2.7-1.6,4.8-4.1,6.1-7
	c14.6-27.7,6.5-61.2,6.7-92.5c0-26.1,6.3-52,5.2-78.2c-0.9-20.9-6.5-41.4-8.6-62.3c-3.4-34.1,2.9-68.6,9.2-102.5
	c4.9-25.9,9.7-51.8,15.8-77.5c3.1-15.8,8.8-31,16.7-45c6.8-10.8,16.1-19.8,23.9-29.9c21.5-28.3,31.1-63.9,26.7-99.2
	c-0.5-3.5-50.1,12.6-54.4,14.6c-17.9,7.5-34.4,18.1-48.7,31.2c-11.5,10.9-20.5,25.5-30.6,37.8c-14.2,17.3-28.2,34.7-42,52.2
	C1609.4,3028.3,1593.9,3048.5,1578.6,3068.8z"/>
<path class="st12" d="M1684.1,2921c3.1,14.9,17.6,26.3,18,41.5c0.3,12.2-8.3,22.4-14.6,32.9c-5.9,10.8-10.9,22.1-14.9,33.8
	c-11.8,30.3-26.5,59.4-43.8,87c-8.3,13.2-17.7,27.6-15.7,43.1c1.3,7.2,3.9,14.2,7.5,20.6l25,49.7c5.5,9.9,9.8,20.5,12.8,31.4
	c2.2,9.4,2.4,19.5,3.7,28.8c3.9,30.5,18.2,61.1,9.7,90.7c-0.7,2.5-3.4,5.6-5.4,3.8c8.3,15.4,14.9,31,14.3,48.7
	c-0.3,9.2-3.1,18.7,0.3,27.3c1.9,3.2,3.2,6.7,3.8,10.4c0,2.5-1.2,4.9-1.4,7.4c-0.7,7,5.7,12.9,12.5,15.1s14,2.1,20.8,4.1
	c13,3.9,22.3,15.1,33.5,22.9c11.3,7.8,24.7,12.2,38.4,12.5c2,0.2,3.9-0.2,5.6-1.1c2-1.7,3.1-4.2,3.2-6.9
	c1.2-12.7-3.9-25.1-13.8-33.1c-2-1.4-3.7-3.2-4.9-5.4c-0.6-1.9-0.8-4-0.5-6c2-27.3,1.6-54.8-1.5-82c-1.3-8.6-1.7-17.4-1.3-26.1
	c1.4-7.2,2.1-14.5,2.1-21.8c-1.5-7.1-3.8-14.1-6.7-20.8c-3.8-12.4-2.8-25.8-3.2-38.9c-1.5-22.5-5.1-44.8-11-66.6
	c-1.3-8.8-4.9-17.1-10.4-24c-5.2-5.5-13.6-10.6-11.6-17.9c1.1-2.7,2.8-5.1,4.9-7.1c4.9-6.1,7.1-14,6-21.8c4.5,1.1,9.2-1.1,11.2-5.3
	c41.4-20.5,73-56.4,88-100.1c0.9-3.2,2.2-6.2,3.9-8.9c3.7-5.3,10.3-7.5,16.1-10.5c18.2-9.2,30.8-26.3,42.3-43.1
	c7.3-9.4,12.8-20,16.4-31.3c1.6-7.4,2.3-15,2.2-22.6l1-38.9c0.2-2.6,0-5.2-0.7-7.6c-1-2.3-2.4-4.4-4.2-6.2
	c-11.1-11.7-25.7-19.6-41.6-22.4c-10.7-1.9-21.6-1.6-32.4-2.4c-20.9-1.8-41.6-8.2-62.6-6.7c-32.9,2.4-62.2,25.3-77.9,54.4
	C1701.5,2911.9,1695.8,2920.6,1684.1,2921z"/>
<path class="st11" d="M591.8,3517.1c7.2,2.5,14.8,3.4,22.4,2.7c0.5-6.2,8.9-7.5,15-7.3c3.1-0.2,6.1,0.5,8.9,1.9
	c1.6,1,2.7,2.4,4.2,3.5c2.7,1.5,5.7,2.2,8.8,2.2l32.2,2.7c14.4,1.2,29.2,2.3,42.7-2.8c2.7-0.8,5.1-2.4,6.9-4.6
	c3.7-5.2,0-12.7-4.9-16.5c-4.9-3.8-11.5-5.5-16.6-9.4c-11.2-8.5-12.7-24.3-18.6-37.2c-4.2-8.1-9.3-15.6-15.4-22.3
	c-4.4-5.8-9.5-11.1-15.2-15.6c-12.9-9.3-27.8-9.2-42.9-10.5c-10.7-1-20.8-1.6-28.5,7.9c-9.5,11.8-5.7,35.5-5.1,49.6
	C586.2,3480.2,588.3,3498.8,591.8,3517.1z"/>
<path class="st14" d="M591.8,3517.1c7.2,2.5,14.8,3.4,22.4,2.7c0.5-6.2,8.9-7.5,15-7.3c3.1-0.2,6.1,0.5,8.9,1.9
	c1.6,1,2.7,2.4,4.2,3.5c2.7,1.5,5.7,2.2,8.8,2.2l32.2,2.7c14.4,1.2,29.2,2.3,42.7-2.8c2.7-0.8,5.1-2.4,6.9-4.6
	c3.7-5.2,0-12.7-4.9-16.5c-4.9-3.8-11.5-5.5-16.6-9.4c-11.2-8.5-12.7-24.3-18.6-37.2c-4.2-8.1-9.3-15.6-15.4-22.3
	c-4.4-5.8-9.5-11.1-15.2-15.6c-12.9-9.3-27.8-9.2-42.9-10.5c-10.7-1-20.8-1.6-28.5,7.9c-9.5,11.8-5.7,35.5-5.1,49.6
	C586.2,3480.2,588.3,3498.8,591.8,3517.1z"/>
<path class="st12" d="M604.8,2890.7c-9.7,3.2-14.1,15.4-12.3,25.7s7.9,19,13,28c14.3,25.7,20.5,55,32.6,81.8
	c9,20,21.2,38.5,30.1,58.4s14.6,42.7,9,64c-2.6,10.4-7.7,19.9-11.1,30c-3.3,11.1-5.5,22.5-6.5,34.1c-4.4,39-5.1,78.4-2.3,117.6
	c0,4.8,1.1,9.5,3,13.9c2,3.9,5.5,8,3.8,12c-0.7,1.6-2.1,2.8-2.9,4.4c-2,4.5,2.1,9.2,5.8,12.3c-1.3,2.4-3.6,4.2-6.3,4.9
	c5.6,3.5,8.2,10.3,6.4,16.6c-3.4,0.5-3.6,5.6-1.4,8.3c2.1,2.7,5.4,4.4,6.9,7.4c1.9,5.2-0.6,10.9-5.7,13c-4.9,1.9-10.4,2.3-15.5,1.2
	c-8.8-1.2-17.5-3.1-26-5.7c-2.9-0.7-5.6-1.9-8-3.7c-4.3-4.2-6.8-9.8-7.2-15.8c-2-16.1-2.6-32.4-1.8-48.7c1.4-78.7,0-157.4-3.4-236
	c-1.4-31.6-10.9-62.5-23.2-91.7c-6.8-15-14.3-29.6-22.6-43.8c-17.6-32.4-33.3-68.1-29.2-104.9c0.4-3.9,1.9-8.7,5.8-9.3
	c1.5-0.2,3.1,0.1,4.5,0.7c8.1,3.8,16,8.2,23.6,13C576.3,2885.8,590.4,2890,604.8,2890.7z"/>
<path class="st14" d="M604.8,2890.7c-9.7,3.2-14.1,15.4-12.3,25.7s7.9,19,13,28c14.3,25.7,20.5,55,32.6,81.8
	c9,20,21.2,38.5,30.1,58.4s14.6,42.7,9,64c-2.6,10.4-7.7,19.9-11.1,30c-3.3,11.1-5.5,22.5-6.5,34.1c-4.4,39-5.1,78.4-2.3,117.6
	c0,4.8,1.1,9.5,3,13.9c2,3.9,5.5,8,3.8,12c-0.7,1.6-2.1,2.8-2.9,4.4c-2,4.5,2.1,9.2,5.8,12.3c-1.3,2.4-3.6,4.2-6.3,4.9
	c5.6,3.5,8.2,10.3,6.4,16.6c-3.4,0.5-3.6,5.6-1.4,8.3c2.1,2.7,5.4,4.4,6.9,7.4c1.9,5.2-0.6,10.9-5.7,13c-4.9,1.9-10.4,2.3-15.5,1.2
	c-8.8-1.2-17.5-3.1-26-5.7c-2.9-0.7-5.6-1.9-8-3.7c-4.3-4.2-6.8-9.8-7.2-15.8c-2-16.1-2.6-32.4-1.8-48.7c1.4-78.7,0-157.4-3.4-236
	c-1.4-31.6-10.9-62.5-23.2-91.7c-6.8-15-14.3-29.6-22.6-43.8c-17.6-32.4-33.3-68.1-29.2-104.9c0.4-3.9,1.9-8.7,5.8-9.3
	c1.5-0.2,3.1,0.1,4.5,0.7c8.1,3.8,16,8.2,23.6,13C576.3,2885.8,590.4,2890,604.8,2890.7z"/>
<path class="st12" d="M471.8,2795.1c-5.1-3.3-11-5.1-17.1-5.4c-7,1.1-13.5,4.3-18.6,9.2c-6.5,5-12.7,10.5-18.5,16.3
	c-24.6,26.2-33.1,63.7-22.1,97.9c5.9,17.5,16.6,32.9,27.1,48l21.4,30.8c32.7,46.9,65.4,93.9,99.6,139.7c0.1,2.2,1.6,4.2,3.7,4.9
	c1.3,0.3,2.8,0.3,3.6,1.3c0.3,0.6,0.5,1.4,0.4,2.1c-0.1,3.3-0.8,6.6-1.9,9.7c-0.6,1-0.7,2.2-0.4,3.4c1.1,2.6,5.8,1.1,7.3,3.6
	c1,1.6,0,3.7-1.6,4.9c-1.6,1.2-2.9,2.9-2.7,4.9c0.2,2,3.5,3.8,3.4,6.3c0,1.4-1.2,2.4-2,3.5c-2.4,3.5-2,8.2,1.1,11.2
	c2.2,22.4-9.7,43.6-12.3,66c-3.8,35.2,12.1,69.6,14,104.9c-0.1,4,0.6,7.9,2.2,11.6c3.3,6.1,11.8,9.7,11.5,16.7
	c-0.6,2.9-1.4,5.7-2.4,8.4c0.1,4,0.5,8.1,1.3,12c0,4-3.4,8.9-7.2,7.3c2.8,9.3,5.3,18.8,7.5,28.3l75,6.2c0.8-6.7,0.6-13.6-0.7-20.3
	c-1.6-7.2-4.9-14-6.5-21.2c-2.2-7.1-1.1-14.9,3-21.2c-4.1,0.1-7.6-2.8-8.3-6.8c-0.7-3.8-0.7-7.8,0-11.6c2-19.5-6.2-38.9-6-58.4
	c0.2-15.5,5.6-30.3,8.4-45.5c5.8-32.5-0.2-67.8,14.2-97.4c8.8-17.9,20.9-37.8,11.1-55.1c-4.9-8.6-13.4-14.6-18.9-22.5
	c-4.6-7.6-8-15.8-10.2-24.3c-11.6-35.8-30.2-68.9-46.6-102.8c-4.5-8.5-7.9-17.6-10-27c-1.2-8.3-1.6-16.6-1.2-24.9
	c0-15-1-29.9-2.8-44.8c-0.3-6.5-2.2-12.9-5.5-18.5c-3.2-4.3-7.1-7.9-11.7-10.7C527.7,2818.7,498.4,2809.1,471.8,2795.1z"/>
<path class="st11" d="M561.7,3544.6c7.2,2.5,14.8,3.4,22.4,2.7c0.6-6.2,8.9-7.5,15-7.3c3-0.1,6,0.6,8.6,2c1.6,1,2.7,2.4,4.3,3.5
	c2.7,1.5,5.7,2.3,8.8,2.2l32.2,2.7c14.4,1.2,29.2,2.3,42.8-2.8c2.7-0.8,5-2.4,6.8-4.6c3.7-5.2,0-12.7-4.9-16.5
	c-4.9-3.8-11.5-5.5-16.6-9.4c-11.1-8.5-12.7-24.3-18.6-37.2c-4.2-8.1-9.3-15.6-15.4-22.3c-4.4-5.8-9.5-11.1-15.2-15.6
	c-12.9-9.3-27.8-9.2-42.9-10.5c-10.8-1-20.8-1.6-28.5,7.9c-9.7,11.8-5.7,35.5-5.2,49.6C555.9,3507.7,558.1,3526.2,561.7,3544.6z"/>
<rect x="968.1" y="2980" class="st10" width="379.8" height="379.8"/>
<path class="st4" d="M1270.3,3157.2c0,43.3-20.3,70.6-52.4,70.6c-16.4,0-28.9-8.8-31.1-21.8h-2.3c-5.6,13.5-19.2,21.9-33.7,21
	c-28.5,0-47.6-22.9-47.6-56.9c0-32.7,19.2-55.4,47.2-55.4c13.5-0.5,26.1,7,32,19.1h2.3v-16.3h23.3v75.7c-0.9,7.4,4.4,14.2,11.8,15
	c0.9,0.1,1.9,0.1,2.8,0c16.2,0,26.5-19.5,26.5-50.1c0-48.7-36.5-81.2-90.4-81.2c-53.9,0-91.3,38.9-91.3,93.9
	c0,56.2,37.6,92.1,96.1,92.1c10.7,0.1,21.3-0.9,31.8-2.7c5-0.8,9.8,2.6,10.6,7.6c0.8,4.7-2.1,9.2-6.7,10.4c-12,2.7-24.3,4.1-36.6,4
	c-71.1,0-116.8-43.8-116.8-112c0-66.6,46.5-112.3,114.2-112.3C1225.1,3057.6,1270.3,3098.3,1270.3,3157.2z M1128.4,3170.6
	c0,21.6,10.1,34.7,26.7,34.7c17.4,0,28.4-13.4,28.4-34.7s-11-34.4-28.1-34.4C1138.2,3136.2,1128.4,3148.9,1128.4,3170.6
	L1128.4,3170.6z"/>
<circle class="st13" cx="893.8" cy="2591.1" r="74.2"/>
<path class="st13" d="M823.8,2613.1c-10.7,9.2-25.9,9.7-39.9,11.3c-29.9,3-58.9,11.5-85.8,24.8c-3.7,1.6-7,3.9-9.7,6.8
	c-2.3,3.2-4,6.8-4.9,10.6c-2.5,8.3-3.5,17.1-2.8,25.8c1,8.5,3.4,16.7,7.2,24.3c10.3,21.3,26.2,39.5,46,52.5
	c3.4,2.5,7.2,4.3,11.2,5.4c9.7,2,19.2-3.7,28.8-6.2c8.8-2.3,18-2,26.6,0.9c8.1,2.7,16.6,7.6,24.3,4.3c5-2.8,8.9-7.3,11.1-12.6
	c7.6-14.4,14.3-29.2,20.3-44.3c2.1-5.9,4.6-11.6,7.4-17.2c8.6-16.4,23.5-29.2,30.9-46.1c1.5-2.6,1.8-5.8,0.7-8.7
	c-1.4-1.9-3.3-3.4-5.5-4.2c-11-6.3-20.9-14.1-29.6-23.3c-4.9-4.9-13.9-17.3-20.9-18.4C831.6,2597.8,829.2,2608.5,823.8,2613.1z"/>
<path class="st11" d="M825.6,2763.9c-8.6,4.1-18.7,2.3-28.1,0.3c-24-4.9-48.3-10.1-70.6-20.5c-7-2.6-13-7.2-17.3-13.3
	c-2.7-5.2-4.4-10.8-4.9-16.6l-4.1-27.6c-1.4-9.7,1.1-18.6,1.3-28.3c0.3-2.2-0.3-4.4-1.6-6.2c-1.4-1.1-3.1-1.7-4.9-1.5
	c-11.1,0-17.9,11.8-25.7,19.8c-4.5,4.6-9.9,8.2-15.8,10.6c-7.2,2.9-16,4.9-18.8,12.1c-1.2,3-1.1,6.4-2.3,9.3
	c-4.9,11.9-26.3,7.9-31.7,19.5c-1.6,3.3-1.5,7.5-4,10.1s-7.3,2.5-11.2,3.2c-15.5,2.5-23,20.4-36.3,28.9c-11.1,7.1-25.5,7-37.5,12.5
	c-6.2,3.7-12.7,7-19.5,9.7c-7.5,1.3-15,1.7-22.6,1.1c-1.6-0.1-3.3,0.4-4.5,1.5c-0.9,1.5-1.2,3.2-0.7,4.9
	c7.5,47.7,39.6,87.9,84.5,105.8c2.5,0.8,5,2,7.2,3.5c6.8,4.9,7.9,15.9,15.6,19.5c5.7,1.9,11.9,0.6,16.3-3.5
	c4.2-4.1,8.1-8.4,11.7-12.9c7-7.3,16.2-12.1,26.1-13.7c9.2-1.5,19.5-0.4,26.9-6c3-2.8,5.9-5.8,8.5-9.1c5.6-5.2,12.2-9.1,19.5-11.5
	c19.5-7.5,40-11.9,60.8-12.9c19.5-1.1,39.7,0.7,58.1-5.7c4.8-1.5,9.2-3.9,12.9-7.3c4-4.3,6.9-9.4,8.7-15
	C828.4,2805,829.7,2784.1,825.6,2763.9z"/>
<path class="st11" d="M729.9,2654.5c5.5-0.5,11,0,16.5,0c6.5,0,12.9-1.6,19.5-1.6c21,0.3,39.4,14.3,45.3,34.5
	c0.6,1.6,0.7,3.3,0.3,4.9c-0.4,1.7-2,2.7-3.7,2.5c-2.1-5.9-4.9-11.5-8.3-16.7c-6.2-8.4-14.9-14.5-24.9-17.3
	c-10-2.8-20.5-3.2-30.7-1.1c-4.2,0.8-8.3,1.9-12.5,3.1l-20.2,5.5c-3.7,1-7.3,2-10.9,3.3c-2.7,1-7.4,4.9-10.1,4.9
	c-3.7,0-0.7-3.2,0.9-5.3c3.2-4.4,7.8-7.7,12.9-9.4C712.3,2658.2,721,2655.8,729.9,2654.5z"/>
<path class="st13" d="M779.9,2877.5c4.9,15.4,9.7,30.8,15.6,45.8c10.8,26,24.4,50.7,40.5,73.8c10.4,15.2,21.5,29.8,33.4,43.8
	c14.9,17.6,31.5,35.2,36.8,57.7c3.1,12.9,2,26.5,3.3,39.8c1.3,13.2,5.6,27.3,16.3,35.2c8.1,5,17.3,8.1,26.9,8.9
	c6.7,1.1,15.1,1.4,18.6-4.4c1.2-2.4,1.9-5,1.8-7.7l1.6-19.5c0.4-4.2,1.8-9.7,6-9.7c4.2,0,6.3,5.4,9.7,7.9c5.1,2.8,11.5,0.9,14.3-4.3
	c0.1-0.2,0.2-0.4,0.3-0.6c2.1-5.5,2.3-11.5,0.4-17c-5.8-22.3-20.9-41-41.4-51.5c-7.1-2.9-13.8-6.4-20.3-10.6
	c-6.5-5.6-11.9-12.4-15.9-20.1c-36.8-60.6-73.8-121.7-99.8-187.5c-5.1-11.8-8.6-24.2-10.3-36.9c-0.5-13,0-26,1.6-38.9
	c1.6-23.4-0.5-46.9-6.3-69.6c-1.3-6-3.5-11.7-6.7-16.9c-10.7-16.3-35.8-18.6-51.7-7.4c-11.8,9.1-19.3,22.7-20.5,37.6
	c-1.2,13.1,6.4,26.8,10.3,38.9C756.4,2802,768.2,2839.8,779.9,2877.5z"/>
<path class="st12" d="M1001.9,2538.6c0.6-6.2-4.9-11.8-11.2-15.7c-6.6-3.4-13-7.3-19.1-11.7c-5.6-4.9-8.7-11.2-14.4-16.1
	c-6.4-4.9-13.7-8.5-21.4-10.7c-16.5-5.8-33.8-8.9-51.2-9.2c-17.2-0.5-34.3,4-49,12.9c-3.3,2-6.1,4.6-8.3,7.7c-2.1,3.8-3.5,8-4,12.3
	c-3.2,13.3-7.4,26.3-12.8,38.9c-5.5,14-11.4,28.5-24.3,39.3c-13.9,11.6-35.1,18.3-44.3,32.2c-2,2.5-2.8,5.9-2,9
	c1.3,3.5,5.5,5.9,9.4,8.1c22.5,12.9,42,29.7,52,49.7c10.7,19.8,8.9,44-4.6,62.1c-5.2,6.8-12.4,14.9-7.3,21.8
	c7.7,10.4,34.5,4.5,40.6,15.5c1.3,3.7,1.6,7.6,0.8,11.4c0,11.5,11.1,21.9,24.7,27.2c14.3,4.9,29.3,7.3,44.4,7.3
	c4.1-9.1,4.5-19.4,1.1-28.7c-1-2-1.4-4.3-1.1-6.5c1.1-2.5,2.7-4.6,4.9-6.3c16.3-15.4,12.9-38,3.1-56.3s-25-35-30.6-54.2
	c-2.8-9.7-2.9-20.3,4.9-28.2c4.3-3.8,9-7.2,14-10.2c8.8-6,15.6-14.5,19.5-24.3c4.5-12.7,3.8-27.9,17.2-36.3
	c13.3-8.4,30.6-5.6,44.7-11.1C988.6,2564.1,1001,2547.6,1001.9,2538.6z"/>
<circle class="st13" cx="1418.1" cy="2564.8" r="81"/>
<path class="st13" d="M1491,2561.4c15.1,24.1,39.3,41.1,67.2,47l-6.1,22.1c-10.5,38.1-22.4,78.4-51.8,104.8
	c2.6-13.2-0.4-26.9-8.2-37.9c-7.8-10.8-17-20.5-27.5-28.7l-46.6-40.5c-1.4-1-2.6-2.4-3.5-3.9c-1.1-2.8-1.1-6,0-8.9
	c5.9-18.5,22.9-30,36.6-42.5c6.9-6.5,13.1-13.7,18.4-21.5C1479.1,2538.3,1485.1,2551.5,1491,2561.4z"/>
<path class="st15" d="M1501.3,2666.1c0.5,6.1-0.4,12.1-2.4,17.9c-2.3,5.8-8.6,9-14.6,7.5c1.7-3.8-2.8-8.2-7-7.7
	c-4.2,0.9-7.6,3.9-9.2,7.8c-2.8,5.6-3.7,11.9-2.7,18.1c1.3,7.7,5.7,15,4.6,22.7c-0.9,6.4-5.6,12.8-3.1,18.7c1.6,2.7,3.7,5.1,6,7.2
	c6.8,8.4,5.9,20.8-2.2,28l63.3,1.2c-2.3,10.6,2.4,21.4,7.8,30.7c30.7,52.2,84,87.1,144.2,94.1c-6,3.5-8,11.2-4.5,17.2
	c0.4,0.7,0.9,1.4,1.4,2c5.2,5.1,13.8,4.5,20.3,1.2c6.1-3.9,11.9-8.3,17.4-13c10.3-7.4,23-10.9,35.6-9.7c7.9,0.7,15.6,3.3,23.5,3.7
	c23.4,1.3,43.5-15.6,65.8-22.4c16.4-4.9,35-4.9,48.7-15.3c5.9-4.4,10.8-11.6,9.1-18.8c-1.5-4.1-3.8-7.9-6.8-11
	c-7.9-10.3-12.6-22.6-18.3-34.1c-11.2-23-26.7-43.7-45.6-61c-14.2-12.5-29.3-24-45.2-34.3c-3.9-2.8-8-5.3-12.3-7.4
	c-5.7-1.9-11.3-4.1-16.7-6.8c-7.4-4.9-11.7-12.9-17.4-19.5c-12.5-14.6-31.7-21.3-47.2-32.8c-10.3-7.7-19.5-17.8-31.8-21.6
	c-6-1.8-12.4-1.9-18.4-3.7c-13.6-4.1-23.6-16.3-36.9-21.1c-10.6-3.9-22.2-2.9-33.4-4.3c-12.3-1.5-24.1-6-34.4-13
	c-3.3-2.7-7.1-4.9-11.1-6.5c-16.9-4.9-18.3,26.4-19.9,37.3C1505.5,2633.4,1501.3,2649.7,1501.3,2666.1z"/>
<path class="st13" d="M1517.8,2771.8c2.8,30.7-20.4,60.5-13.6,90.6c1.5,6.4,4.2,12.5,5.2,19c2.8,17.9-7.8,34.8-18,49.7l-87.6,128.2
	c-3.5,5.7-7.7,10.8-12.5,15.4c-16.7,14.8-41.8,13.3-63.7,17.8c-15.4,3.1-30,9.6-42.7,18.9c-1.2,0.9-1.4,2.6-0.5,3.8
	c7.4,10,19.3,15.6,31.7,14.9c2.3,3,0,7.5-3.2,9.7c-4.9,3.3-11.1,4.1-12.1,12.1c-0.3,2.8,0.2,5.6,1.6,8c3.5,5.4,9,9.2,15.3,10.6
	c30.2,9.2,62.9-7,85.5-29.2c22.6-22.2,38.9-50,61.1-72.5c12.3-12.5,26.3-23.1,38.9-35.2c25.3-24.3,44.9-53.5,63.9-82.8
	c6.2-8.5,10.9-18.1,13.8-28.2c2.3-10,1.3-20.6,4-30.5c3.5-13,13-23.4,20.9-34.1c15.5-21.4,25.8-47.5,23.8-73.8s-18.4-52.2-43.1-61.2
	c-7.7-3.1-16.3-3.6-24.3-1.5c-10.2,3.1-17.7,11.5-24.6,19.5l-16.6,19.2c-4.2,4.2-7.5,9.2-9.7,14.6c-2.2,5.6-0.8,12,3.4,16.3"/>
<path class="st15" d="M1562,2645.6c-11.5,0.7-24.3,1.8-32.3,9.7c-3.4,3.8-6.1,8.1-8.1,12.8c-7.9,16-15.6,32.8-16.1,50.7
	c-0.5,14.3,3.7,28.2,5.8,42.4c1.8,11.7-2.8,23.7-3.7,35.6c15.9-4.3,31.3-10.2,46-17.7c8.5-5.5,17.5-10.2,26.9-14
	c13.7-4.6,36.8,3.3,49.7,9.7c0.7-9.2-6.1-25.1-5.4-34.1c0.1-3.9,0.8-7.7,2-11.3c1.9-3.9,4.2-7.5,6.9-11c10.2-16.6,8.6-37.8-4-52.6
	c-11.5-13-29.6-17.9-46.9-19.9c-10.9-1.2-21.9-1.6-32.8-1.1"/>
<path class="st12" d="M1311.4,2483.4l-1.8-15.2c12.8,3.3,24.9-7.5,33.1-18.8s15.7-24.3,28.1-29.2c15.1-5.7,31.2,3.4,45.6,10.9
	c16.2,9.1,33.9,15,52.3,17.3c2.9,0.1,5.8,0.6,8.7,1.4c9.4,3.4,13.9,15.1,15.2,25.8c1.4,10.7,1,22.1,5.6,31.6
	c3.6,7.2,9.7,12.6,13.2,19.5c9.7,19.1,0.3,45.3,10.8,64.1l-25.9-23.8c-2.4-2.2-5.7-4.5-8.3-2.6s-2.2,4.9-3.1,7.2
	c-3,6.9-11,10-17.9,7c-0.2-0.1-0.4-0.2-0.6-0.3c-6.6-3.7-12.2-8.9-16.5-15.1c-10.8-13.8-25-24.6-41.2-31.2
	c-14.2-5.5-30.1-4.5-43.6,2.6c-12.1,6.9-21,22.8-35.8,23.3c-20.3,0.8-28.8-37.1-38.2-52c7.1-5.4,9.3-15,5.4-23
	C1298,2482.5,1311.2,2481.1,1311.4,2483.4z"/>
<linearGradient id="SVGID_1_" gradientUnits="userSpaceOnUse" x1="3203.4749" y1="-3133.8899" x2="3203.4749" y2="-1671.1251" gradientTransform="matrix(1 0 0 -1 -51.77 758.98)">
	<stop  offset="0" style="stop-color:#808080;stop-opacity:0.25"/>
	<stop  offset="0.54" style="stop-color:#808080;stop-opacity:0.12"/>
	<stop  offset="1" style="stop-color:#808080;stop-opacity:0.1"/>
</linearGradient>
<path class="st16" d="M3496.6,3862.6c-3.9-16.7-6.3-31.3-6.3-31.3c0.3-11-2.2-22-7.3-31.8v-4.6l0,0v-33.6c2.3-6.1,5.1-12,8.5-17.6
	c6-10.5,0-49.2,0-49.2s-22.4-54.5-17-89c5.4-34.6-46-153.5-46-153.5c0.3-11.5,2-22.9,4.9-34.1c0.6-2.3,0.8-4.7,0.6-7.1
	c0-0.3,0-0.6,0-0.9v0.3c-0.8-22.8-18.8-65.5-18.8-65.5l2.4-81.4c0,0,11.5-48-7.3-112.5c-6.6-22.5-10.8-40.5-13.4-54.4
	c-0.3-1.6-0.6-3.1-0.8-4.5c38.6-5.9,68.1-10.8,68.1-10.8s-22.4-93.7-37.5-110.1c-15.1-16.4-27.2-67.9-27.2-67.9s-7.9-66.2,4.9-85.5
	c12.8-19.3,14.6-52.7,14.6-52.7s29.2-21.1,32.7-30.5c5.2-13.3,8.4-27.3,9.7-41.6c0-11.1-3.7-21.1-2.4-27s-8.5-28.1-3.6-38.7
	c1.3-3.2,1.9-6.7,1.9-10.2c0-0.1,0-0.2,0-0.3l0,0c0-9.2-0.8-18.4-2.6-27.5c-8.4-7.1-18.2-12.3-28.7-15.4l-0.6-2.5l-1.7-6.6
	c-0.9-0.6-1.9-1.2-2.9-1.7v-2.4v-9.7l4.5-21.4c9-37.1-40.7-42.7-40.7-42.7c-3-5.7-8-10.1-14.1-12.4c-9.7-3.5-1.7,56,3,59.8
	c3.5,2.8,14.6,21.5,19.5,30.7l0,0l0.9,1.5c-0.8,0.7-1.6,1.5-2.3,2.4l1.9,12.9l0.3,2c-3.3,4.1-6,8.6-7.9,13.5c0,0,9.1,10,7.3,21.1
	c-0.7,8.7,0.3,17.5,3,25.8c-0.5-0.6-6.9-7.5-13.3-5.8c-6.4,1.7-24.3,7-24.3,7s-13.3,2.3-12.1,5.3c1.2,2.9-9.1,15.8-9.1,15.8
	l-35.8-34.1c-0.4-1-0.7-2-1.1-3.1c-1.5-4.8-2.5-9.7-3.1-14.6c3.9-0.9,7.7-2.1,11.4-3.7c3.7-1.3,7-3.5,9.7-6.3c3-4.7,5-9.9,5.7-15.4
	c2.8-10.4,8.9-19.7,13.3-29.6c7.2-16.6,9.6-34.9,6.9-52.8c-0.6-5.6-2.4-10.9-5.5-15.6c-5.8-8-16.5-11.3-24.3-17.7
	c-7.9-6.4-12.7-16.2-21.7-21c-8.6-3.7-18.1-4.5-27.2-2.3c-17.9,2.9-35.1,9.2-50.7,18.4c-5.3,3.1-11,6.7-17,5.6
	c-5-1.5-9.3-4.7-12.2-9c0-0.2,0-0.4,0-0.5l-0.4-0.4c-3.8,8.4-5.6,17.6-5.5,26.8c0,1.4,0,2.8,0,4.3c0,0.5,0,1,0,1.5
	c0,0.4,0,0.8,0,1.3l0,0c0,0.6-0.1,1.3-0.3,1.9c-0.7,1.8-1.9,3.5-3.3,4.9c-1.1,1.2-2.1,2.6-2.9,4c0-0.5,0.3-1,0.5-1.5
	c-2.3,3.3-3.6,7.2-3.7,11.2c-0.2,2.9,0.8,5.9,2.7,8.1c1.8,1.8,3.7,3.4,5.8,4.9c-0.7,3.9-1,7.9-1,11.9c0.1,24.2,12.9,46.6,33.7,59
	l1.2,3.1c5.2,12.3,7.4,25.6,6.5,38.9c0,1,0,1.9-0.4,2.9l-1.3,1.5l0,0c0,0-59.1,0.6-73-12c-13.9-12.6-35.1,30.8-35.1,30.8
	s-21.2,4.1-25.4,0c-4.2-4.1-29.2-0.6-29.2-0.6c-10.2-9-23.3-13.8-36.9-13.4c-8.3-6.3-17.4-11.4-27.1-15.1l0,0l-0.7-0.2l0,0
	c-4.3-1.5-8.8-2.1-13.3-1.7c0,0-29.2-24-37.5-36.9c-8.3-12.9-48.7-60.7-49-60.9v-2.3l-0.5-7c-1.2,0.2-2.4,0.3-3.6,0.3
	c0-0.7-0.5-1.5-0.8-2.4c-2.3-6.7-5.2-13.2-8.6-19.5c0,0,0-8.8,2.6-11c2.6-2.2-1.1-34.4-1.1-34.4s-26.2-61.2-49.6-15.5
	c0,0-44.3,29.5-7.2,64c0,0,14.6,7.2,16.9,12.9c1.4,3.7,6.4,14.1,9.7,20.9l1.5,3.1l-0.4,0.3l0.6,5.7v2.2c-7,3.9-11.7,7.9-10.6,10.9
	c2.1,5.1,3.5,10.4,4.2,15.8c0,0,51.5,64.4,58.1,92c0,0,138,82,183.3,87.9l-7.8,41c-1.2,11.1-1.8,22.2-1.8,33.4
	c0.6,8.8-5.5,48.7-5.5,48.7s-7.9,58.4-14.6,66.7c-6.7,8.3-5.5,43.4-5.5,43.4c-1.6,16.8-4.6,33.5-9.1,49.7
	c-6.7,22.3-1.8,49.8-1.8,49.8s-23,52.7,32.1,17c0,0,27-1.7,58.4-2.7c0,1,0,2,0,3.1c0,4,0,8.3,0,12.9c-0.4,30.2-0.6,71.8,0.8,103.3
	c2.4,55.6,19.5,165.5,19.5,165.5v55.3c-1.1,5.2-1.6,10.5-1.6,15.8c-0.4,19.5,4.8,38.7,14.9,55.4l4.2,36.9c0,0,9.7,24.3,10.1,38.9
	c0,1.2-0.2,2.4-0.4,3.5c-0.4,1.9-0.5,3.8-0.5,5.6c-0.5,16.7,9.7,56.9,9.7,56.9s0.6,40.4,6.7,42.7c5.2,2-6.9,23.3-10.5,29.2
	c-0.1-0.4-0.2-0.8-0.2-1.2c-0.4,0.8-0.7,1.2-0.7,1.2c-1.3,3.3-1.9,6.7-1.9,10.2c-0.7,5.6,1.9,11.2,6.7,14.2
	c11.5,7.1,17.7,12.9,7.9,15.2c-3.6,0.5-7.2,1.3-10.7,2.2c0-0.4-0.4-0.9-0.5-1.4c-2.6,1.2-4.2,3.9-3.8,6.8c0.1,4.8,1.4,9.5,3.7,13.7
	c4.3,10.6,9.8,20.6,16.4,29.9l4.9-0.5c-0.7,1.7-1.6,3.4-2.7,4.9c-1.7,2.5-4.1,4.6-6.8,6c-2.5,1.5-5.4,2.5-8.3,2.9
	c-6.6,0.2-12.9,3.2-17.1,8.3c-6,7.8-9.7,18.4,2.1,27.8l43.3,14.9c0,0,74.4,9.7,70.5-7c-3.9-16.7-6.3-31.3-6.3-31.3
	c0.3-10.2-1.8-20.4-6.1-29.6c-0.7-1.5-1.6-3-2.6-4.4l2.6-0.3c0,0,5.5-36.9,12.7-43.8c1.7-1.6,2.1-2.9,1.7-3.8c0.8-2-1.1-3.2-3.6-3.8
	l-0.5,1.5c-2.4-0.5-4.8-0.8-7.2-0.8c0,0-2.4-19.5,5.4-26.4c1.3-1.6,1.9-3.7,1.6-5.7c0-2.7-0.2-5.3-0.8-7.9l-0.3,0.5
	c-4.5-15.6-10.3-30.8-17.4-45.4c0,0-0.6-17.6,4.2-24.6s-0.6-95.5-0.6-95.5s1.8-42.7-3.7-62.6c-5.5-19.9,6.7-43.4,6.7-43.4v-1.3v-0.3
	c0,0-0.3-2.6-0.7-6.8v0.4c-1.2-11.3-3.5-31.8-5.2-41.3c-2.4-13.5,0.6-77.9,0.6-77.9l10.9-27.5l19.5,47.4l20.5,63.3
	c5.9,7.8,9.5,17.1,10.5,26.9c0,0.7,0,1.4,0,2c-0.1,1.4-0.1,2.8,0,4.2c-0.3,8,1.9,15.9,6.3,22.5c0,0,5.5,29.9,13.9,37.5
	c8.5,7.6,8.5,22.2,8.5,22.2s10.3,43.4,15.1,51c4.1,6.4,4.3,24,4.2,29.2l0,0v1.6c0,0,1.4,15.5,1.4,28.5c0,1.6,0,3.2,0,4.9v-0.3
	c0,3.5-0.4,7.1-1.3,10.5v0.6c0-0.7,0-1.5,0-2.2c-2.2,8.8-3.2,17.9-3.1,27c-0.3,15.6,2.1,34.1,11.5,44.8
	c16.4,18.7,26.6,16.4,26.6,16.4s-7.9,23.4-17.6,28.1c-0.4,0.2-0.7,0.4-1,0.6c0-0.4,0-0.9-0.2-1.4c-2.1,2.4-3.2,5.6-2.8,8.8
	c0.4,12.5,4.6,24.6,12,34.7c2.3,2.3,5.1,4,8.2,4.9l-1.5,0.9c-1.1,0.6-2.2,1.1-3.4,1.6c-1.5,0.7-3.2,1.1-4.9,1.3
	c-6.6,0.2-12.9,3.2-17.1,8.3c-6,7.8-9.7,18.4,2.1,27.8l43.3,14.9C3426.9,3869.7,3500.4,3879.6,3496.6,3862.6z"/>
<path class="st17" d="M3212.3,3890.3l-41.9-14.9c-11.5-9.3-7.8-20-2-27.8c4-5.1,10.1-8.1,16.6-8.3c2.8-0.4,5.6-1.4,8-2.9
	c2.7-1.5,4.9-3.5,6.6-6c3.1-4.8,4.8-10.5,4.9-16.2c0,0,46-13.4,58.4,0c2.3,2.4,4.1,5.2,5.6,8.2c4.1,9.3,6.1,19.5,5.8,29.6
	c0,0,2.3,14.6,6.1,31.3C3284.3,3900,3212.3,3890.3,3212.3,3890.3z"/>
<path class="st17" d="M3417.3,3869.9l-41.9-14.9c-11.6-9.3-7.9-20-2-27.7c4-5.1,10.1-8.2,16.6-8.4c1.7-0.1,3.3-0.6,4.9-1.3
	c1.1-0.5,2.2-1,3.2-1.6c11.7-6.4,11.4-22.2,11.4-22.2s46-13.5,58.4,0c1.7,1.8,3.2,3.8,4.4,6c4.9,9.9,7.4,20.8,7.1,31.8
	c0,0,2.3,14.6,6.1,31.3C3489.3,3879.5,3417.3,3869.9,3417.3,3869.9z"/>
<path class="st5" d="M3263,3814.2c2.3,2.4,4.1,5.2,5.6,8.2l0,0l-68.9,8c3.1-4.8,4.8-10.5,4.9-16.2
	C3204.5,3814.1,3250.4,3800.7,3263,3814.2z"/>
<path class="st5" d="M3472.4,3799.5v12.9c-10.7,17.7-62.6,13.8-77.6,4.9c1.1-0.5,2.2-1,3.2-1.6c11.7-6.4,11.4-22.2,11.4-22.2
	s46-13.5,58.4,0C3469.6,3795.3,3471.1,3797.3,3472.4,3799.5z"/>
<path class="st12" d="M3480.6,3743.9c-3.2,5.6-6,11.5-8.2,17.6v46.3c-11.7,19.5-72.6,12.9-80.8,2.3c-8.2-10.6-17-38.1-7.6-42.7
	c9.3-4.7,17-28.1,17-28.1s-9.7,2.3-25.8-16.4c-16-18.7-11.1-60.3-8.2-70.3c2.9-10,0-43.3,0-43.3s0.6-23.4-4.1-31.1s-14.6-51-14.6-51
	s0-14.6-8.2-22.2s-13.5-37.5-13.5-37.5c-4.8-7.5-6.9-16.4-5.8-25.2c1.8-14.6-10-30.5-10-30.5l-19.9-63.3l-18.7-47.5l-10.5,27.5
	c0,0-3,64.5-0.6,77.9c2.4,13.4,5.8,49.2,5.8,49.2s-11.7,23.5-6.4,43.4c5.3,19.9,3.5,62.6,3.5,62.6s5.3,88.4,0.6,95.5
	c-4.7,7.1-4.1,24.3-4.1,24.3s24,51.6,16.4,58.4s-5.3,26.4-5.3,26.4s16.4,0,9.4,7s-12.3,43.8-12.3,43.8l-70.9,9
	c-6.4-9.3-11.7-19.4-15.9-29.9c-9.3-21.7,1.8-19.5,11.2-21.7s3.5-8.2-7.7-15.2c-11.1-7.1-4.9-22.8-4.9-22.8s17-28.7,11.1-31.1
	s-6.5-42.7-6.5-42.7s-11.7-48-8.8-60.9c2.9-12.9-9.4-43.8-9.4-43.8l-4.1-36.9c-12.5-21-17-45.8-12.7-69.8v-57
	c0,0-16.4-110.1-18.8-165.5c-1.5-35.6-1.1-84.3-0.6-114.6c0.3-17,0.6-28.3,0.6-28.3l253.1-26.3c0.4,12.6,2,25.2,4.6,37.6
	c2.6,13.9,6.6,31.9,12.9,54.4c18.2,64.4,7.1,112.4,7.1,112.4l-2.3,81.4c0,0,22.2,54.5,17.6,73c-2.9,11.1-4.5,22.6-4.9,34.1
	c0,0,49.8,118.9,44.5,153.5c-5.3,34.6,16.5,88.8,16.5,88.8S3486.5,3733.6,3480.6,3743.9z"/>
<path class="st14" d="M3335.9,3438.8l76.8-10.3C3412.8,3428.5,3369.3,3473,3335.9,3438.8z"/>
<path class="st5" d="M3401.8,3353.2c0,0,2.7,27.2-14,37.5C3387.8,3390.7,3417.6,3386,3401.8,3353.2z"/>
<path class="st5" d="M3397.1,3266.5c0,0-64.4,53-87.6,48.7C3286.2,3310.9,3397.1,3266.5,3397.1,3266.5z"/>
<path class="st5" d="M3240.4,3463.6c0,0-48.7,11.1-50.3,30.8C3188.4,3514,3240.4,3463.6,3240.4,3463.6z"/>
<path class="st14" d="M3251.2,3707.9c0,0-69.1,12.9-49.5,21.7c16.8,6.6,34.2,11.9,51.8,15.8
	C3253.6,3745.3,3275.8,3746.5,3251.2,3707.9z"/>
<g class="st18">
	<path d="M3187.8,3743.3c-3.5-2.2-5.9-5.9-6.3-10l-0.7,1.3c0,0-6.5,15.8,4.9,22.8c1.3,0.8,2.5,1.6,3.6,2.4c2-0.4,4.3-0.7,6.4-1.2
		C3204.8,3756.4,3198.9,3750.5,3187.8,3743.3z"/>
	<path d="M3276.8,3738.8c1.9-1.8,1.8-6.3,0.7-12.1c-2.8,5.2-4.2,11.1-3.9,17C3274.2,3741.9,3275.3,3740.2,3276.8,3738.8z"/>
	<path d="M3266.1,3447.4c-2.6,6.9-4.2,14.2-4.9,21.5c1.3-5,3.1-9.9,5.4-14.6C3266.6,3454.3,3266.7,3451.5,3266.1,3447.4z"/>
	<path d="M3424.4,3416.7c0.5-2.1,0.7-4.3,0.6-6.4c-0.9,4.4-1.5,8.5-1.9,12C3423.5,3420.4,3423.9,3418.6,3424.4,3416.7z"/>
	<path d="M3264.5,3655.7c1.4-4.2,1.9-8.6,1.8-13c-2.2,5.2-3.3,10.8-3.4,16.4C3263.3,3657.9,3263.8,3656.7,3264.5,3655.7z"/>
	<path d="M3279,3766.1c-3.6,11.8-6.3,23.8-8,36l-70.8,8.2c-6.4-9.3-11.8-19.3-15.9-29.9c-0.8-1.7-1.4-3.4-2-5.2
		c-4.2,1.9-5.9,6.3-0.3,19.5c4.1,10.5,9.4,20.5,15.9,29.8l70.8-8.2c0,0,5.3-36.9,12.3-43.8C3284.3,3768.7,3282.1,3767,3279,3766.1z"
		/>
	<path d="M3185.4,3660.9c0,0,0.6,40.5,6.4,42.8l0,0c3-6.7,4.9-13,2.3-14.1c-5.8-2.3-6.4-42.7-6.4-42.7s-11.7-48-8.8-60.9
		c3-12.9-9.4-43.8-9.4-43.8l-4.1-36.9c-12.5-20.9-17.1-45.7-12.9-69.7v-56.9c0,0-16.4-110.1-18.7-165.8
		c-1.5-35.6-1.1-84.3-0.6-114.6c0-5.5,0-10.3,0-14.6h-2c0,0-0.3,11.2-0.6,28.3c-0.5,30.3-0.9,79,0.6,114.6
		c2.3,55.6,18.7,165.8,18.7,165.8v56.8c-4.3,24.3,0.4,49.2,13.2,70.3l4.1,36.9c0,0,12.3,31,9.3,43.8
		C3173.6,3612.9,3185.4,3660.9,3185.4,3660.9z"/>
	<path d="M3393.9,3794.5c-5.8-8.3-9.6-17.8-11.2-27.8c-7.3,6.5,1.1,31.9,8.9,41.9c7.8,10,69.1,17,80.9-2.4V3795
		C3456.6,3810.7,3401.7,3804.4,3393.9,3794.5z"/>
	<path d="M3482.9,3728.2c-3.2,5.6-5.9,11.5-8.2,17.6v8.2c1.3-3,3.2-7,5.8-11.7c1.9-4.6,2.8-9.6,2.6-14.6L3482.9,3728.2z"/>
	<path d="M3397.5,3737.5c2.2-4.5,4.2-9.2,5.8-13.9c0,0-9.7,2.3-25.8-16.4c-11.5-13.6-12.1-39.4-10.5-56.2c-2.9,10-7.6,51.6,8.2,70.3
		C3385.5,3733.6,3393.3,3736.7,3397.5,3737.5z"/>
	<path d="M3367,3607.6c1,11.5,1.4,23.1,1.2,34.7c0.4-2.3,0.8-4.1,1.2-5.5c3-9.7,0-43.3,0-43.3s0.6-23.5-4.1-31.1
		c-4.7-7.6-14.6-51-14.6-51s0-14.6-8.2-22.2s-13.5-37.5-13.5-37.5c-4.8-7.5-6.9-16.3-5.9-25.2c1.8-14.6-9.7-30.5-9.7-30.5
		l-19.9-63.3l-19-47.2l-10.6,27.5c0,0,0,3.5-0.3,8.9l8.6-22.3l18.7,47.4l19.9,63.3c0,0,11.7,15.8,9.7,30.4
		c-0.9,8.8,1.3,17.6,6.1,24.9c0,0,5.3,29.8,13.4,37.5s8.2,22.2,8.2,22.2s9.7,43.3,14.6,51C3367.7,3584.2,3367,3607.6,3367,3607.6z"
		/>
</g>
<path class="st19" d="M3416.2,2530l-4.4,21.4l0.2,9.7v7l-24.3,2.5l-2.7-4.9l0,0c-4.9-9.2-15.6-27.8-19-30.7
	c-4.5-3.8-12.6-63.3-2.9-59.7c5.9,2.3,10.8,6.7,13.6,12.3C3376.7,2487.7,3424.8,2492.8,3416.2,2530z"/>
<path class="st5" d="M3412.2,2567.9l-24.3,2.5l-2.7-4.9l0,0c6.8-7.7,18.1-9.6,27-4.4L3412.2,2567.9z"/>
<path class="st20" d="M3418.4,2579.5l-32.2,7.5l-0.7-4.9l-1.8-12.9c7.3-9.8,21.2-11.8,31-4.4c0.1,0,0.1,0.1,0.2,0.1l1.6,6.6
	L3418.4,2579.5z"/>
<path class="st19" d="M2896.3,2532.3l-34.4,18.5l-3.1-6.5c-3.3-6.9-8.2-17.2-9.7-20.9c-2-5.7-16.4-12.9-16.4-12.9
	c-36-34.4,6.9-64,6.9-64c22.7-45.7,48,15.5,48,15.5s3.5,32.3,1,34.4s-2.5,11-2.5,11c3.3,6.3,6.1,12.8,8.3,19.5
	C2895.8,2530.3,2896.3,2532.3,2896.3,2532.3z"/>
<path class="st5" d="M2896.3,2532.3l-34.4,18.5l-3.1-6.5c4.9-4,22.1-18,27.7-17.4c2.7,0.3,5.5,0.3,8.2,0
	C2895.8,2530.3,2896.3,2532.3,2896.3,2532.3z"/>
<path class="st20" d="M2899.8,2542.7l-38.7,19l-0.8-8.3l-0.5-5.7c0,0,22.4-19.2,29.2-18.5c3.4,0.5,6.8,0.5,10.1,0l0.4,7
	L2899.8,2542.7z"/>
<path class="st19" d="M3322.5,2672c0,0-168.6,19-137.1,8.8c22-7.2,30.7-21.1,32.5-36.6c0.8-13.3-1.3-26.6-6.3-38.9
	c-4-10.6-9.1-20.8-15.1-30.5c0,0,128.9-70.9,103.1-6.4c-4,9.7-6.5,20-7.3,30.5c-0.8,10.4,0.3,20.9,3.3,30.9
	C3300.5,2646.1,3309.8,2660.7,3322.5,2672z"/>
<path class="st5" d="M3299.6,2568.4c-4,9.7-6.5,20-7.3,30.5c-12.2,10.2-25.5,9.7-42.5,9.7c-13.1,0-27.7,3.2-38.2-3.1
	c-4-10.6-9.1-20.8-15.1-30.5C3196.5,2575.1,3325.4,2503.9,3299.6,2568.4z"/>
<circle class="st19" cx="3247.5" cy="2543.2" r="69.7"/>
<path class="st5" d="M3322.5,2672c0,0-168.6,19-137.1,8.8c22-7.2,30.7-21.1,32.5-36.6c8.4-9.1,25.2-15.7,36.1-19.1
	c9.9-3.3,20.5-3.5,30.5-0.5c3.9,1.1,7.7,2.7,11.1,4.9C3300.4,2645.9,3309.7,2660.6,3322.5,2672z"/>
<path class="st5" d="M3418.4,2579.5l-32.2,7.5l-0.7-4.9c7-9.7,19.4-14,31-10.6L3418.4,2579.5z"/>
<path class="st5" d="M2899.8,2542.7l-38.7,19l-0.8-8.3c12.5-6.7,25.5-12.5,38.9-17.2L2899.8,2542.7z"/>
<path class="st5" d="M3389.1,3096.8c-65.3,10.3-158.2,23.7-173,19.2c-12.2-3.7-51.3-3.4-85.3-2.2c0.3-17,0.6-28.3,0.6-28.3
	l253.1-26.3C3385,3071.8,3386.5,3084.4,3389.1,3096.8z"/>
<path class="st15" d="M3454.2,3081.3c0,0-215,36.9-238,29.8c-23.1-7.1-141.5,0.6-141.5,0.6c-53.3,35.7-31-17-31-17
	s-4.9-27.6,1.8-49.8c4.3-16.3,7.2-33,8.8-49.8c0,0-1.2-35.1,5.3-43.3s14.1-66.8,14.1-66.8s5.9-39.8,5.3-48.7
	c-0.6-8.9,1.8-33.3,1.8-33.3l7.6-41c-43.8-5.8-177.5-87.9-177.5-87.9c-6.4-27.5-56.2-92-56.2-92c-0.7-5.4-2.1-10.7-4.1-15.8
	c-3.5-9.3,49.2-28.1,49.2-28.1s39.2,48,47.4,60.9c8.2,12.9,36.3,36.9,36.3,36.9c4.4-0.4,8.8,0.1,12.9,1.7h0.7l0,0
	c9.4,3.7,18.2,8.8,26.2,15c13.2-0.3,26,4.5,35.7,13.5c0,0,24-3.5,28.1,0.6c4.1,4.1,24.3,0,24.3,0s20.5-43.3,34.1-30.8
	c13.5,12.6,70.6,12,70.6,12c7.6-10.1,26.1-17.4,37.8-21.1c9.9-3.3,20.5-3.5,30.5-0.5c4.3,1.2,8.4,3.2,12.1,5.8l34.7,34.1
	c0,0,9.7-12.9,8.8-15.8c-0.9-2.9,11.7-5.3,11.7-5.3s17-5.3,23.4-7.1s12.4,5.3,12.9,5.8c-2.6-8.3-3.6-17.1-2.9-25.8
	c0.5-7.7-2-15.2-7-21.1c20.7-50,67-7.7,67-7.7s5.3,27.5,0.6,38.1c-4.7,10.6,4.9,32.8,3.5,38.7c-1.4,5.8,2.3,15.8,2.3,26.9
	c-1.2,14.2-4.4,28.2-9.3,41.6c-3.6,9.3-31.6,30.4-31.6,30.4s-1.8,33.4-14.1,52.7c-12.3,19.3-4.9,85.5-4.9,85.5s11.7,51.6,26.3,68.2
	C3432.4,2988.3,3454.2,3081.3,3454.2,3081.3z"/>
<path class="st5" d="M3140.9,2696.1c0,0-6.4-19.5-12.3-21.1c-5.8-2.1-11.5-4.7-17-7.6l3.8-7.2c0,0,22,6,25.5,12.5
	C3144.4,2679,3140.9,2696.1,3140.9,2696.1z"/>
<path class="st5" d="M3023.3,2653.3c-1.2,5.9-53.3,11.1-53.3,11.1l26.3-26.4l0,0l0.7,0.2l0,0
	C3006.5,2641.9,3015.4,2647,3023.3,2653.3z"/>
<circle class="st21" cx="2872.3" cy="2572.9" r="4.7"/>
<circle class="st21" cx="2878.3" cy="2582.3" r="4.7"/>
<circle class="st21" cx="2884.2" cy="2590.9" r="4.7"/>
<circle class="st21" cx="2890.3" cy="2600.3" r="4.7"/>
<circle class="st21" cx="3442.4" cy="2599.8" r="3.8"/>
<circle class="st21" cx="3443" cy="2608.4" r="3.8"/>
<circle class="st21" cx="3443.5" cy="2617.1" r="3.8"/>
<path class="st5" d="M3141.2,2854.8c-0.5-0.7,131.4,166,234,69.7C3375.2,2924.5,3213.2,2946.4,3141.2,2854.8z"/>
<path class="st5" d="M3065.3,2941.5c0,0,79,2.1,87.3,24.9v23.7c-4.5,2.5-10.1,2.5-14.6,0c-8-4.3-55.7-28.6-72.6-16.9L3065.3,2941.5z
	"/>
<path class="st15" d="M3066.8,2941.5c0,0,75.5,2,83.5,23.7v22.6c-4.4,2.4-9.7,2.4-14.1,0c-7.6-4.1-53.5-27.3-69.4-16.1V2941.5z"/>
<path class="st5" d="M3108.5,2769.7c8.1,18.7,18.4,36.3,30.6,52.5c13.4,18,29.6,33.6,48,46.3
	C3187.1,2868.6,3109.8,2780.8,3108.5,2769.7z"/>
<path class="st5" d="M3082.6,2678.1c0,0,13.2,56.9,47.1,76.2L3082.6,2678.1z"/>
<path class="st5" d="M3062.3,2683.9c-0.3-1.1-11.7,45,43.8,70.5C3106.1,2754.3,3082.6,2746.4,3062.3,2683.9z"/>
<path class="st5" d="M3407.4,2645.7c-0.9,0,27.4,18,35,26.3C3442.4,2672,3424.1,2644.5,3407.4,2645.7z"/>
<path class="st17" d="M3228.7,2606.4c0.5,3.7,2.5,7.1,5.4,9.4c2.1,1,4.3,1.5,6.6,1.5c21.3,1.3,43.4,2.2,63.3-5.9
	c3.7-1.3,7.1-3.5,9.7-6.4c2.8-4.7,4.6-9.9,5.2-15.3c2.8-10.4,8.7-19.5,12.9-29.6c7.1-16.8,9.5-35.1,6.9-53.2
	c-0.5-5.5-2.3-10.9-5.3-15.6c-5.6-8-15.9-11.3-23.4-17.7c-7.4-6.4-12.3-16.2-20.9-21c-8.3-3.7-17.5-4.5-26.3-2.3
	c-17.4,3-34,9.2-49.1,18.4c-4.9,3.1-10.6,6.7-16.4,5.6c-5-1.6-9.2-4.9-12.1-9.2c-4.1,9.5-5.9,19.9-5.2,30.3c0.2,1.5,0.2,3.1,0,4.6
	c-0.7,1.8-1.9,3.5-3.3,4.9c-5.3,6.1-8.5,15.7-3.4,21.9c2.3,2.7,5.7,4.1,7.9,6.9c3.9,4.9,2.6,11.9,2.5,18.2c-0.2,2.2,0.4,4.4,1.6,6.2
	c2.3,2.1,5.6,2.9,8.6,2c3-0.9,6.1-1.2,9.2-0.9c3.3,1.1,6.1,3.3,8,6.1C3220.7,2577.6,3224.5,2591.3,3228.7,2606.4z"/>
<g class="st22">
	<path d="M3315.4,2599.6c-2.7,2.9-6,5.1-9.7,6.3c-19.5,8.2-41.8,7.3-63,5.9c-2.3,0-4.5-0.5-6.6-1.5c-3-2.3-4.9-5.7-5.5-9.4
		c-4.1-15-7.9-28.8-17.8-41.2c-1.9-2.9-4.7-5.1-8-6.1c-3.1-0.3-6.2,0-9.2,0.9c-3,0.9-6.3,0.1-8.6-2c-1.2-1.8-1.7-4-1.5-6.2
		c0-6.3,1.4-13.3-2.5-18.2c-2.2-2.7-5.6-4.2-7.9-6.9c-3-4.1-3.5-9.5-1.3-14c-3.7,5.9-5.4,13.5-1,18.7c2.3,2.7,5.7,4.1,7.9,6.9
		c3.9,4.9,2.6,11.9,2.5,18.2c-0.2,2.2,0.4,4.4,1.6,6.2c2.3,2.1,5.6,2.9,8.6,2c3-0.9,6.1-1.2,9.2-0.9c3.3,1.1,6.1,3.3,8,6.1
		c9.7,12.5,13.6,26.2,17.8,41.2c0.5,3.7,2.5,7.1,5.4,9.4c2.1,1,4.3,1.5,6.6,1.5c21.3,1.3,43.4,2.2,63.3-5.9c3.7-1.3,7.1-3.5,9.7-6.4
		c1.3-1.7,2.3-3.6,3-5.6C3316,2599,3315.8,2599.3,3315.4,2599.6z"/>
	<path d="M3180,2498c1-1,1.7-2.2,2.1-3.6c0.2-1.5,0.2-3.1,0-4.6c-0.6-8.5,0.5-17.1,3.3-25.2l-0.4-0.4c-4.2,9.5-6,19.9-5.2,30.3
		C3179.9,2495.7,3180,2496.9,3180,2498z"/>
</g>
<path class="st5" d="M3216.2,2648.6c0,0,87.1,11.5,94.9-1.6"/>
<path class="st5" d="M3385.5,2612.6c0,0,48.3,0,59,18.2"/>
</svg>
