<?xml version="1.0" encoding="utf-8"?>
<!-- Generator: Adobe Illustrator 22.1.0, SVG Export Plug-In . SVG Version: 6.00 Build 0)  -->
<svg version="1.1" id="adf6e2ad-667e-4933-ac27-50a949c2abe5"
	 xmlns="http://www.w3.org/2000/svg" xmlns:xlink="http://www.w3.org/1999/xlink" x="0px" y="0px" viewBox="0 0 1130 799.2"
	 style="enable-background:new 0 0 1130 799.2;" xml:space="preserve">
<style type="text/css">
	.st0{opacity:0.1;fill:#4285F4;enable-background:new    ;}
	.st1{fill:none;stroke:#535461;stroke-width:2;stroke-miterlimit:10;}
	.st2{fill:#4285F4;}
	.st3{opacity:0.25;enable-background:new    ;}
	.st4{fill:#C8CAD7;}
	.st5{opacity:0.1;enable-background:new    ;}
	.st6{fill:#474157;}
	.st7{fill:#EDEDF4;}
	.st8{fill:#FFFFFF;}
	.st9{opacity:0.2;fill:#4285F4;enable-background:new    ;}
	.st10{fill:#A1616A;}
</style>
<title>wireframing</title>
<path class="st0" d="M1108.1,197.6c-11.6-22.4-26.7-42.8-44.8-60.4L441.4,132l512-60.8C919.9,60,884.8,54.1,849.5,53.8
	C800.3,20.2,736.9,0,667.8,0c-62,0-119.3,16.3-166.1,43.9c-39.8-17.3-85-27.1-133.1-27.1C230.5,16.8,115.3,97.7,89.5,205
	L1108.1,197.6z"/>
<path class="st0" d="M1130,287.6c0-29.4-6.7-58.4-19.4-84.9L32.9,298.4c-11,16.6-19.5,34.8-25.3,53.9l333.8,42.1L0,425
	c10.3,121.4,133.4,217.4,283.9,217.4c75.7,0,144.5-24.3,195.5-63.9c51.1,40.4,120.6,65.2,197.2,65.2c113.6,0,211.6-54.7,257.3-133.7
	c91.6-24.6,162.7-86.3,187.1-163.5l-422.1-55.3H1130C1130,290,1130,288.8,1130,287.6z"/>
<path class="st1" d="M296.4,580.1c0,0-46.2-66.7-38.4-129.6c3.5-26.4-1.7-53.2-14.8-76.3c-6.3-11-13.6-21.3-21.7-30.9"/>
<path class="st2" d="M226.2,303.5c3,9-4.7,40.7-4.7,40.7s-25.1-20.8-28.1-29.9s1.9-18.8,11-21.8
	C213.5,289.5,223.2,294.4,226.2,303.5L226.2,303.5z"/>
<path class="st2" d="M269.9,344.7c-2.4,9.2-26.1,31.6-26.1,31.6s-9.7-31.1-7.3-40.4c2.3-9.3,11.6-14.9,20.9-12.7
	c9.3,2.3,14.9,11.6,12.7,20.9C270,344.3,270,344.5,269.9,344.7L269.9,344.7z"/>
<path class="st2" d="M297.1,430.8c-6.7,6.8-38.5,14.1-38.5,14.1s7.3-31.8,14-38.5c6.7-6.8,17.7-6.8,24.4,0
	C303.8,413.1,303.8,424,297.1,430.8L297.1,430.8z"/>
<path class="st2" d="M303,500.6c-5.5,7.8-35.6,20.4-35.6,20.4s1.8-32.6,7.3-40.4s16.3-9.7,24.1-4.2S308.5,492.8,303,500.6z"/>
<path class="st2" d="M210,389.5c8.6,4.2,41,0.7,41,0.7s-17.4-27.6-26-31.8c-8.7-3.8-18.9,0.1-22.8,8.8
	C198.6,375.5,202,385.2,210,389.5z"/>
<path class="st2" d="M217.9,471c9.4,1.4,39.3-11.6,39.3-11.6s-24.8-21.2-34.3-22.6c-9.4-1.4-18.2,5.1-19.6,14.5
	C202,460.8,208.5,469.6,217.9,471L217.9,471z"/>
<path class="st2" d="M236.5,549.2c9.1,3,40.7-4.8,40.7-4.8s-20.9-25-30-28s-18.8,2-21.8,11C222.5,536.4,227.4,546.2,236.5,549.2
	L236.5,549.2z"/>
<path class="st3" d="M226.2,303.5c3,9-4.7,40.7-4.7,40.7s-25.1-20.8-28.1-29.9s1.9-18.8,11-21.8
	C213.5,289.5,223.2,294.4,226.2,303.5L226.2,303.5z"/>
<path class="st3" d="M269.9,344.7c-2.4,9.2-26.1,31.6-26.1,31.6s-9.7-31.1-7.3-40.4c2.3-9.3,11.6-14.9,20.9-12.7
	c9.3,2.3,14.9,11.6,12.7,20.9C270,344.3,270,344.5,269.9,344.7L269.9,344.7z"/>
<path class="st3" d="M297.1,430.8c-6.7,6.8-38.5,14.1-38.5,14.1s7.3-31.8,14-38.5c6.7-6.8,17.7-6.8,24.4,0
	C303.8,413.1,303.8,424,297.1,430.8L297.1,430.8z"/>
<path class="st3" d="M303,500.6c-5.5,7.8-35.6,20.4-35.6,20.4s1.8-32.6,7.3-40.4s16.3-9.7,24.1-4.2S308.5,492.8,303,500.6z"/>
<path class="st3" d="M210,389.5c8.6,4.2,41,0.7,41,0.7s-17.4-27.6-26-31.8c-8.7-3.8-18.9,0.1-22.8,8.8
	C198.6,375.5,202,385.2,210,389.5z"/>
<path class="st3" d="M217.9,471c9.4,1.4,39.3-11.6,39.3-11.6s-24.8-21.2-34.3-22.6c-9.4-1.4-18.2,5.1-19.6,14.5
	C202,460.8,208.5,469.6,217.9,471L217.9,471z"/>
<path class="st3" d="M236.5,549.2c9.1,3,40.7-4.8,40.7-4.8s-20.9-25-30-28s-18.8,2-21.8,11C222.5,536.4,227.4,546.2,236.5,549.2
	L236.5,549.2z"/>
<path class="st1" d="M296.2,577.4c0,0-69.3-42.2-87.6-103c-7.5-25.5-23.1-47.9-44.5-63.8c-10.2-7.5-21-14-32.4-19.5"/>
<path class="st2" d="M119.9,353c6.4,7.1,12.2,39.1,12.2,39.1s-31.4-8.9-37.8-15.9c-6.4-7.1-5.9-18,1.2-24.4
	C102.6,345.4,113.5,345.9,119.9,353z"/>
<path class="st2" d="M176.5,372.9c1.5,9.4-11,39.5-11,39.5s-21.5-24.5-23.1-33.9c-1.5-9.4,4.8-18.3,14.3-19.8S175,363.5,176.5,372.9
	L176.5,372.9z"/>
<path class="st2" d="M236.3,440.6c-3.4,8.9-29.5,28.5-29.5,28.5s-6.2-32-2.8-40.9s13.4-13.4,22.3-9.9
	C235.3,421.7,239.7,431.7,236.3,440.6z"/>
<path class="st2" d="M270,502c-1.9,9.4-24.2,33.1-24.2,33.1s-11.5-30.5-9.6-39.9s11-15.4,20.3-13.6C265.8,483.4,271.9,492.7,270,502
	z"/>
<path class="st2" d="M139.9,438.1c9.5,0.3,37.8-16,37.8-16s-27.1-18.2-36.6-18.5c-9.5-0.3-17.5,7.1-17.8,16.7
	C122.9,429.8,130.3,437.8,139.9,438.1L139.9,438.1z"/>
<path class="st2" d="M180.2,509.5c9.2-2.5,31.3-26.6,31.3-26.6s-31.3-9.3-40.4-6.7c-9.2,2.4-14.7,11.9-12.3,21.1
	s11.9,14.7,21.1,12.3C180,509.5,180.1,509.5,180.2,509.5L180.2,509.5z"/>
<path class="st2" d="M228.8,573.4c9.5-1,35.3-20.9,35.3-20.9s-29.3-14.4-38.7-13.5c-9.5,0.9-16.4,9.4-15.5,18.9
	C210.9,567.4,219.3,574.4,228.8,573.4L228.8,573.4z"/>
<ellipse class="st0" cx="578.7" cy="761.1" rx="179" ry="10.6"/>
<path class="st4" d="M661,742.4v6.4H471.4v-5.2c32.3-12,48.8-47.8,36.8-80.1c-5.8-15.5-17.4-28.1-32.5-35h184.1
	c-31.3,14.4-45,51.4-30.7,82.7C635.5,725.2,646.9,736.3,661,742.4z"/>
<path class="st5" d="M659.8,628.5c-17.1,7.9-29.8,23.1-34.5,41.3H510.1c-4.7-18.3-17.3-33.5-34.5-41.3H659.8z"/>
<path class="st4" d="M254.2,595.8v36c0,19.9,14.5,36,32.5,36h558c18,0,32.5-16.1,32.5-36v-36H254.2z"/>
<path class="st5" d="M661,742.4v6.4H471.4v-5.2c5.2-1.9,10.1-4.5,14.6-7.8h163.4C653,738.4,656.9,740.6,661,742.4z"/>
<path class="st4" d="M418.2,737.8h296c5.2,0,9.5,4.3,9.5,9.5l0,0c0,5.2-4.3,9.5-9.5,9.5h-296c-5.2,0-9.5-4.3-9.5-9.5l0,0
	C408.7,742.1,413,737.8,418.2,737.8z"/>
<path class="st6" d="M877.2,201.3c0-17.9-14.6-32.5-32.5-32.5l0,0h-558c-17.9,0-32.5,14.6-32.5,32.5l0,0v401.5h623V201.3z"/>
<path class="st7" d="M287.2,199.8h557c8.8,0,16,7.2,16,16v345c0,8.8-7.2,16-16,16h-557c-8.8,0-16-7.2-16-16v-345
	C271.2,207,278.4,199.8,287.2,199.8z"/>
<circle class="st8" cx="565.7" cy="184.3" r="7.5"/>
<circle class="st8" cx="565.7" cy="633.3" r="18.5"/>
<path class="st4" d="M860.2,215.8h-589c0-8.8,7.2-16,16-16h557C853,199.8,860.2,207,860.2,215.8z"/>
<circle class="st7" cx="287.2" cy="207.8" r="4"/>
<circle class="st7" cx="299.2" cy="207.8" r="4"/>
<circle class="st7" cx="311.2" cy="207.8" r="4"/>
<rect x="293.2" y="229.3" class="st2" width="151" height="9"/>
<rect x="293.2" y="492.3" class="st2" width="151" height="9"/>
<rect x="293.2" y="512.3" class="st9" width="280" height="9"/>
<rect x="293.2" y="525.3" class="st9" width="280" height="9"/>
<rect x="293.2" y="538.3" class="st9" width="280" height="9"/>
<rect x="293.2" y="253.3" class="st9" width="278" height="151"/>
<rect x="296.2" y="418.3" class="st9" width="65" height="60"/>
<rect x="506.2" y="418.3" class="st9" width="65" height="60"/>
<rect x="399.7" y="418.3" class="st9" width="65" height="60"/>
<rect x="630.5" y="297.2" class="st9" width="191.3" height="140.8"/>
<rect x="650.7" y="325.8" class="st7" width="151" height="9"/>
<rect x="650.7" y="344.5" class="st7" width="151" height="9"/>
<rect x="650.7" y="363.2" class="st7" width="151" height="9"/>
<rect x="650.7" y="381.8" class="st7" width="151" height="9"/>
<rect x="650.7" y="400.5" class="st7" width="151" height="9"/>
<rect x="653.9" y="454.1" class="st2" width="144.7" height="25.3"/>
<rect x="646.2" y="538.5" class="st2" width="97" height="17"/>
<path class="st10" d="M732.2,799.2l0.7-0.5C732.7,798.9,732.5,799.1,732.2,799.2z"/>
<path class="st10" d="M783.3,794.7l0.7-0.5C783.8,794.4,783.5,794.5,783.3,794.7z"/>
<path class="st5" d="M845.1,596.2c-2.7,1.8-7.5,1.8-9.1,1.5l-0.6-7.8l9.7,1.2C844.9,592.8,844.9,594.5,845.1,596.2z"/>
<path class="st5" d="M728.8,567.9c0,0-7.3,21.2-6.4,30S728.8,567.9,728.8,567.9z"/>
<path class="st5" d="M733.7,686.3c2.3-0.2,4.6-0.2,6.8,0C744.4,686.6,733.7,686.3,733.7,686.3z"/>
<path class="st5" d="M733.7,689.7c2.3-0.2,4.6-0.2,6.8,0C744.4,690.1,733.7,689.7,733.7,689.7z"/>
<path class="st5" d="M785.8,682.2c2.3-0.2,4.6-0.2,6.8,0C796.4,682.6,785.8,682.2,785.8,682.2z"/>
<path class="st5" d="M786.9,685c2.3-0.2,4.6-0.2,6.8,0C797.6,685.3,786.9,685,786.9,685z"/>
</svg>
