<?xml version="1.0" encoding="utf-8"?>
<!-- Generator: Adobe Illustrator 22.1.0, SVG Export Plug-In . SVG Version: 6.00 Build 0)  -->
<svg version="1.1" id="ab9c9524-e61a-4262-9078-30d20f864b6e"
	 xmlns="http://www.w3.org/2000/svg" xmlns:xlink="http://www.w3.org/1999/xlink" x="0px" y="0px" viewBox="0 0 542.8 300"
	 style="enable-background:new 0 0 542.8 300;" xml:space="preserve">
<style type="text/css">
	.st0{opacity:0.5;}
	.st1{fill:url(#SVGID_1_);}
	.st2{fill:#F2F2F2;}
	.st3{fill:#E0E0E0;}
	.st4{opacity:0.7;fill:#4285F4;enable-background:new    ;}
	.st5{fill:url(#SVGID_2_);}
	.st6{fill:#F5F5F5;}
	.st7{fill:url(#SVGID_3_);}
	.st8{fill:#FFFFFF;}
	.st9{clip-path:url(#SVGID_5_);}
	.st10{opacity:0.4;fill:#4285F4;enable-background:new    ;}
	.st11{fill:url(#SVGID_6_);}
	.st12{fill:url(#SVGID_7_);}
	.st13{clip-path:url(#SVGID_9_);}
	.st14{opacity:0.4;fill:#BDBDBD;enable-background:new    ;}
	.st15{fill:url(#SVGID_10_);}
	.st16{opacity:0.7;fill:#3AD29F;enable-background:new    ;}
	.st17{fill:url(#SVGID_11_);}
	.st18{fill:#4285F4;}
	.st19{fill:#3AD29F;}
	.st20{fill:#F55F44;}
	.st21{fill:#FDD835;}
	.st22{fill:url(#SVGID_12_);}
	.st23{fill:url(#SVGID_13_);}
	.st24{fill:url(#SVGID_14_);}
	.st25{fill:#47E6B1;}
	.st26{fill:#4D8AF0;}
	.st27{opacity:0.5;fill:#47E6B1;enable-background:new    ;}
</style>
<g>
	<title>logo_design</title>
	<g class="st0">
		
			<linearGradient id="SVGID_1_" gradientUnits="userSpaceOnUse" x1="243.5636" y1="192.231" x2="243.5636" y2="-193.5125" gradientTransform="matrix(1 0 0 1 0 278)">
			<stop  offset="0" style="stop-color:#808080;stop-opacity:0.25"/>
			<stop  offset="0.54" style="stop-color:#808080;stop-opacity:0.12"/>
			<stop  offset="1" style="stop-color:#808080;stop-opacity:0.1"/>
		</linearGradient>
		<rect x="100" y="84.5" class="st1" width="287" height="385.7"/>
	</g>
	<rect x="103.8" y="89.7" class="st2" width="278.1" height="372.3"/>
	<rect x="125.5" y="105.4" class="st3" width="95.7" height="3"/>
	<rect x="125.5" y="118.9" class="st4" width="95.7" height="3"/>
	<rect x="235.4" y="105.4" class="st3" width="95.7" height="3"/>
	<rect x="250.3" y="190.6" class="st3" width="95.7" height="3"/>
	<rect x="252.6" y="198.9" class="st3" width="95.7" height="3"/>
	<rect x="257.1" y="207.1" class="st3" width="95.7" height="3"/>
	<rect x="250.3" y="323" class="st3" width="95.7" height="3"/>
	<rect x="252.6" y="331.2" class="st3" width="95.7" height="3"/>
	<rect x="257.1" y="339.4" class="st3" width="95.7" height="3"/>
	<g class="st0">
		
			<linearGradient id="SVGID_2_" gradientUnits="userSpaceOnUse" x1="177.0539" y1="-14.7877" x2="177.0539" y2="-117.977" gradientTransform="matrix(1 0 0 1 0 278)">
			<stop  offset="0" style="stop-color:#808080;stop-opacity:0.25"/>
			<stop  offset="0.54" style="stop-color:#808080;stop-opacity:0.12"/>
			<stop  offset="1" style="stop-color:#808080;stop-opacity:0.1"/>
		</linearGradient>
		<rect x="126.2" y="160" class="st5" width="101.7" height="103.2"/>
	</g>
	<rect x="126.9" y="162.3" class="st6" width="100.1" height="98.7"/>
	<g class="st0">
		
			<linearGradient id="SVGID_3_" gradientUnits="userSpaceOnUse" x1="177.0539" y1="-45.514" x2="177.0539" y2="-109.7833" gradientTransform="matrix(1 0 0 1 0 278)">
			<stop  offset="0" style="stop-color:#808080;stop-opacity:0.25"/>
			<stop  offset="0.54" style="stop-color:#808080;stop-opacity:0.12"/>
			<stop  offset="1" style="stop-color:#808080;stop-opacity:0.1"/>
		</linearGradient>
		<rect x="130.4" y="168.2" class="st7" width="93.3" height="64.3"/>
	</g>
	<rect id="e1f34465-d008-41db-868b-e00503fb87b3" x="131" y="169" class="st8" width="92.1" height="62"/>
	<g>
		<g>
			<defs>
				<rect id="SVGID_4_" x="131" y="169" width="92.1" height="62"/>
			</defs>
			<clipPath id="SVGID_5_">
				<use xlink:href="#SVGID_4_"  style="overflow:visible;"/>
			</clipPath>
			<g class="st9">
				<polygon class="st10" points="123.3,228.8 146.5,192.9 156.1,208.6 177.1,186.9 195,208.6 210.7,176.5 251.1,240.7 120.3,236.3 
									"/>
				<circle class="st10" cx="141.2" cy="177.9" r="6.7"/>
			</g>
		</g>
	</g>
	<g class="st0">
		
			<linearGradient id="SVGID_6_" gradientUnits="userSpaceOnUse" x1="177.0539" y1="117.5276" x2="177.0539" y2="14.3383" gradientTransform="matrix(1 0 0 1 0 278)">
			<stop  offset="0" style="stop-color:#808080;stop-opacity:0.25"/>
			<stop  offset="0.54" style="stop-color:#808080;stop-opacity:0.12"/>
			<stop  offset="1" style="stop-color:#808080;stop-opacity:0.1"/>
		</linearGradient>
		<rect x="126.2" y="292.3" class="st11" width="101.7" height="103.2"/>
	</g>
	<rect x="126.9" y="294.6" class="st6" width="100.1" height="98.7"/>
	<g class="st0">
		
			<linearGradient id="SVGID_7_" gradientUnits="userSpaceOnUse" x1="177.0539" y1="86.8013" x2="177.0539" y2="22.532" gradientTransform="matrix(1 0 0 1 0 278)">
			<stop  offset="0" style="stop-color:#808080;stop-opacity:0.25"/>
			<stop  offset="0.54" style="stop-color:#808080;stop-opacity:0.12"/>
			<stop  offset="1" style="stop-color:#808080;stop-opacity:0.1"/>
		</linearGradient>
		<rect x="130.4" y="300.5" class="st12" width="93.3" height="64.3"/>
	</g>
	<rect id="c95ac4f6-be4d-44a3-92c2-5c8066e2b531" x="131" y="301.3" class="st8" width="92.1" height="62"/>
	<g>
		<g>
			<defs>
				<rect id="SVGID_8_" x="131" y="301.3" width="92.1" height="62"/>
			</defs>
			<clipPath id="SVGID_9_">
				<use xlink:href="#SVGID_8_"  style="overflow:visible;"/>
			</clipPath>
			<g class="st13">
				<polygon class="st14" points="123.3,361.1 146.5,325.2 156.1,340.9 177.1,319.2 195,340.9 210.7,308.8 251.1,373.1 120.3,368.6 
									"/>
				<circle class="st14" cx="141.2" cy="310.3" r="6.7"/>
			</g>
		</g>
	</g>
	<g class="st0">
		
			<linearGradient id="SVGID_10_" gradientUnits="userSpaceOnUse" x1="455.8041" y1="256.0043" x2="455.8041" y2="-129.7898" gradientTransform="matrix(0.9808 0.1949 -0.1949 0.9808 -114.1685 131.8423)">
			<stop  offset="0" style="stop-color:#808080;stop-opacity:0.25"/>
			<stop  offset="0.54" style="stop-color:#808080;stop-opacity:0.12"/>
			<stop  offset="1" style="stop-color:#808080;stop-opacity:0.1"/>
		</linearGradient>
		<polygon class="st15" points="142.2,443.8 217.4,65.4 499,121.4 423.8,499.7 		"/>
	</g>
	
		<rect x="134" y="141.9" transform="matrix(0.1949 -0.9808 0.9808 0.1949 -17.8207 540.1561)" class="st8" width="372.3" height="278.1"/>
	
		<rect x="331.5" y="14.1" transform="matrix(0.1949 -0.9808 0.9808 0.1949 157.4864 417.4754)" class="st3" width="3" height="197.3"/>
	
		<rect x="276.4" y="291.3" transform="matrix(0.1949 -0.9808 0.9808 0.1949 -158.7038 586.5128)" class="st3" width="3" height="197.3"/>
	
		<rect x="251.1" y="326.2" transform="matrix(0.1949 -0.9808 0.9808 0.1949 -191.34 571.7253)" class="st3" width="3" height="152.5"/>
	
		<rect x="200.8" y="381.6" transform="matrix(0.1949 -0.9808 0.9808 0.1949 -239.269 528.4805)" class="st4" width="3" height="56.8"/>
	
		<rect x="279.8" y="70.7" transform="matrix(0.1949 -0.9808 0.9808 0.1949 108.7542 372.5524)" class="st4" width="3" height="98.7"/>
	
		<rect x="315.3" y="55.7" transform="matrix(0.1949 -0.9808 0.9808 0.1949 113.2239 427.1344)" class="st3" width="3" height="177.9"/>
	
		<rect x="245.9" y="126.7" transform="matrix(0.1949 -0.9808 0.9808 0.1949 53.6411 362.1227)" class="st16" width="3" height="43.3"/>
	
		<rect x="318.1" y="81.6" transform="matrix(0.1949 -0.9808 0.9808 0.1949 80.5225 458.5622)" class="st3" width="3" height="197.3"/>
	<g class="st0">
		
			<linearGradient id="SVGID_11_" gradientUnits="userSpaceOnUse" x1="455.4376" y1="129.6792" x2="455.4376" y2="27.9587" gradientTransform="matrix(0.9808 0.1949 -0.1949 0.9808 -114.1722 131.8395)">
			<stop  offset="0" style="stop-color:#808080;stop-opacity:0.25"/>
			<stop  offset="0.54" style="stop-color:#808080;stop-opacity:0.12"/>
			<stop  offset="1" style="stop-color:#808080;stop-opacity:0.1"/>
		</linearGradient>
		<polygon class="st17" points="220.4,330.5 240.2,230.8 414,265.3 394.1,365.1 		"/>
	</g>
	
		<rect x="267.6" y="210.1" transform="matrix(0.1949 -0.9808 0.9808 0.1949 -36.4033 550.7307)" class="st8" width="99.4" height="174.9"/>
	
		<rect x="314.8" y="98.4" transform="matrix(0.1949 -0.9808 0.9808 0.1949 61.3218 468.8759)" class="st3" width="3" height="197.3"/>
	
		<rect x="223.8" y="275.3" transform="matrix(0.1949 -0.9808 0.9808 0.1949 -71.288 485.4459)" class="st18" width="72.5" height="21.7"/>
	
		<rect x="271.6" y="294.6" transform="matrix(0.1949 -0.9808 0.9808 0.1949 -61.4107 536.1309)" class="st19" width="48.6" height="21.7"/>
	
		<rect x="318.7" y="313.2" transform="matrix(0.1949 -0.9808 0.9808 0.1949 -50.7373 586.3521)" class="st20" width="26.2" height="21.7"/>
	
		<rect x="346.1" y="307.6" transform="matrix(0.1949 -0.9808 0.9808 0.1949 -12.3602 621.8373)" class="st21" width="53.1" height="21.7"/>
	
		<linearGradient id="SVGID_12_" gradientUnits="userSpaceOnUse" x1="584.7387" y1="236.3285" x2="584.7387" y2="-22.9048" gradientTransform="matrix(1 0 0 1 -179 217.46)">
		<stop  offset="0" style="stop-color:#B3B3B3;stop-opacity:0.25"/>
		<stop  offset="0.54" style="stop-color:#B3B3B3;stop-opacity:0.1"/>
		<stop  offset="1" style="stop-color:#B3B3B3;stop-opacity:5.000000e-02"/>
	</linearGradient>
	<path class="st22" d="M450.5,225.2c-38.2-39.8-101.4-41-141.1-2.8c-0.6,0.6-1.2,1.2-1.7,1.7c-37.8,38.1-38.4,100.1-1.5,139
		c33.5,35.3,87.6,41.2,128,14.1l72.1,75c1.9,1.9,4.9,2,6.8,0.1l18-17.3c1.9-1.9,2-4.9,0.1-6.8l-72.1-75.1
		C487.6,314,484,260.1,450.5,225.2z M427.9,345.9c-28.4,27.3-73.6,26.4-100.9-2c-27.3-28.4-26.4-73.6,2-100.9
		c28.4-27.3,73.6-26.4,100.9,2C457.2,273.3,456.3,318.5,427.9,345.9C428,345.9,428,345.9,427.9,345.9z"/>
	
		<linearGradient id="SVGID_13_" gradientUnits="userSpaceOnUse" x1="504.6286" y1="69.5332" x2="504.6286" y2="57.0506" gradientTransform="matrix(1 0 0 1 -179 217.46)">
		<stop  offset="0" style="stop-color:#000000;stop-opacity:0.12"/>
		<stop  offset="0.55" style="stop-color:#000000;stop-opacity:9.000000e-02"/>
		<stop  offset="1" style="stop-color:#000000;stop-opacity:2.000000e-02"/>
	</linearGradient>
	<path class="st23" d="M325.6,274.5c-8,0-8.1,12.5,0,12.5C333.7,287,333.6,274.5,325.6,274.5z"/>
	
		<linearGradient id="SVGID_14_" gradientUnits="userSpaceOnUse" x1="561.9418" y1="55.2178" x2="561.9418" y2="17.0995" gradientTransform="matrix(1 0 0 1 -179 217.46)">
		<stop  offset="0" style="stop-color:#000000;stop-opacity:0.12"/>
		<stop  offset="0.55" style="stop-color:#000000;stop-opacity:9.000000e-02"/>
		<stop  offset="1" style="stop-color:#000000;stop-opacity:2.000000e-02"/>
	</linearGradient>
	<path class="st24" d="M381.6,234.5c-21.6-0.5-41.3,10.4-51.7,26.7c-3.4,5.3,6.3,10.1,9.7,4.7c8.6-13.6,25.1-22.1,42.9-21.7
		c18.6,0.4,35.6,11.1,44.6,25.9c3.4,5.6,12.4,0.5,9-5.1C425,247.3,403.9,235.1,381.6,234.5z"/>
	<path class="st18" d="M458.3,221.4c-38.2-39.8-101.4-41-141.1-2.8c-0.6,0.6-1.2,1.2-1.7,1.7c-37.8,38.1-38.4,100.1-1.5,139
		c33.5,35.3,87.6,41.2,128,14.1l72.1,75c1.9,1.9,4.9,2,6.8,0.1l18-17.3c1.9-1.9,2-4.9,0.1-6.8l-72.1-75.1
		C495.5,310.3,491.8,256.3,458.3,221.4z M435.8,342c-28.4,27.3-73.6,26.4-100.9-2c-27.3-28.4-26.4-73.6,2-100.9
		c28.4-27.3,73.6-26.4,100.9,2C465.1,269.5,464.2,314.7,435.8,342L435.8,342z"/>
	<path class="st18" d="M333.4,270.7c-8,0-8.1,12.5,0,12.5C341.5,283.2,341.5,270.7,333.4,270.7z"/>
	<path class="st18" d="M389.4,230.8c-21.6-0.5-41.3,10.4-51.7,26.7c-3.4,5.3,6.3,10.1,9.7,4.7c8.6-13.6,25.1-22.1,42.9-21.7
		c18.6,0.4,35.6,11.1,44.6,25.9c3.4,5.6,12.4,0.5,9-5.1C432.9,243.4,411.7,231.3,389.4,230.8z"/>
	<rect x="79.1" y="426.1" class="st25" width="2.2" height="12.7"/>
	<rect x="73.9" y="431.4" class="st25" width="12.7" height="2.2"/>
	<path class="st26" d="M367.5,6.2c-1.3-0.6-1.9-2-1.5-3.3c0-0.1,0.1-0.2,0.1-0.3l0,0c0.1-0.8-0.5-1.4-1.3-1.5
		c-0.4,0-0.9,0.2-1.2,0.6l0,0c-0.1,0.1-0.1,0.2-0.1,0.3c-0.6,1.3-2,1.9-3.3,1.5c-0.1,0-0.2-0.1-0.3-0.1l0,0
		c-0.8-0.1-1.4,0.5-1.5,1.3c-0.1,0.4,0.2,1,0.6,1.2l0,0c0.1,0.1,0.2,0.1,0.3,0.1c1.3,0.6,1.9,2,1.5,3.3c0,0.1-0.1,0.2-0.1,0.3l0,0
		c-0.1,0.8,0.5,1.4,1.3,1.5c0.5,0.1,1-0.2,1.2-0.6l0,0c0.1-0.1,0.1-0.2,0.1-0.3c0.6-1.3,2-1.9,3.3-1.5c0.1,0,0.2,0.1,0.3,0.1l0,0
		c0.8,0.1,1.4-0.5,1.5-1.3c0-0.4-0.2-0.9-0.6-1.2l0,0C367.7,6.3,367.6,6.3,367.5,6.2z"/>
	<path class="st21" d="M89.4,100.4c-1.3-0.6-1.9-2-1.5-3.3c0-0.1,0.1-0.2,0.1-0.3l0,0c0.1-0.8-0.5-1.4-1.3-1.5
		c-0.4,0-0.9,0.2-1.2,0.6l0,0c-0.1,0.1-0.1,0.2-0.1,0.3c-0.6,1.3-2,1.9-3.3,1.5c-0.1,0-0.2-0.1-0.3-0.1l0,0
		c-0.8-0.1-1.4,0.5-1.5,1.3c0,0.4,0.2,0.9,0.6,1.2l0,0c0.1,0.1,0.2,0.1,0.3,0.1c1.3,0.6,1.9,2,1.5,3.3c0,0.1-0.1,0.2-0.1,0.3l0,0
		c-0.1,0.8,0.5,1.4,1.3,1.5c0.4,0,0.9-0.2,1.2-0.6l0,0c0.1-0.1,0.1-0.2,0.1-0.3c0.6-1.3,2-1.9,3.3-1.5c0.1,0,0.2,0.1,0.3,0.1l0,0
		c0.8,0.1,1.4-0.5,1.5-1.3c0-0.4-0.2-0.9-0.6-1.2l0,0C89.5,100.5,89.5,100.5,89.4,100.4z"/>
	<path class="st21" d="M484.8,489.2c-1.3-0.6-1.9-2-1.5-3.3c0-0.1,0.1-0.2,0.1-0.3l0,0c0.1-0.8-0.5-1.4-1.3-1.5
		c-0.4,0-0.9,0.2-1.2,0.6l0,0c-0.1,0.1-0.1,0.2-0.1,0.3c-0.6,1.3-2,1.9-3.3,1.5c-0.1,0-0.2-0.1-0.3-0.1l0,0
		c-0.8-0.1-1.4,0.5-1.5,1.3c0,0.4,0.2,0.9,0.6,1.2l0,0c0.1,0.1,0.2,0.1,0.3,0.1c1.3,0.6,1.9,2,1.5,3.3c0,0.1-0.1,0.2-0.1,0.3l0,0
		c-0.1,0.8,0.5,1.4,1.3,1.5c0.4,0,0.9-0.2,1.2-0.6l0,0c0.1-0.1,0.1-0.2,0.1-0.3c0.6-1.3,2-1.9,3.3-1.5c0.1,0,0.2,0.1,0.3,0.1l0,0
		c0.8,0.1,1.4-0.5,1.5-1.3c0-0.4-0.2-0.9-0.6-1.2l0,0C485,489.2,485,489.2,484.8,489.2z"/>
	<circle class="st20" cx="206.9" cy="49.3" r="4.5"/>
	<circle class="st20" cx="528.4" cy="105.4" r="4.5"/>
	<circle class="st26" cx="503" cy="239.3" r="4.5"/>
	<circle class="st27" cx="5.9" cy="19.5" r="4.5"/>
</g>
</svg>
